<svg xmlns="http://www.w3.org/2000/svg" fill="none" viewBox="0 0 149 23">
  <path fill="#000" d="M8.92 4.58c.55 0 1.07.06 1.53.18v2.21a2.35 2.35 0 0 0-.46-.04c-.5 0-.86.11-1.1.33-.22.22-.34.6-.34 1.1v.36h1.82v2.35H8.55v7.51h-3.2v-7.5H3.8V8.72h1.57V8c0-1.14.3-2 .9-2.56.63-.57 1.5-.86 2.66-.86zm3.37 14h3.23V4.76h-3.23zm14.8-7.7c.43.78.65 1.7.65 2.77 0 1.06-.22 2-.65 2.78a4.49 4.49 0 0 1-1.85 1.83c-.8.42-1.72.64-2.78.64-1.07 0-2-.22-2.8-.64a4.47 4.47 0 0 1-1.83-1.83 5.68 5.68 0 0 1-.65-2.78c0-1.06.2-1.99.65-2.78a4.49 4.49 0 0 1 1.84-1.82 5.8 5.8 0 0 1 2.79-.65c1.06 0 1.99.22 2.78.65.8.42 1.4 1.03 1.85 1.82zm-2.75 2.77a3.6 3.6 0 0 0-.5-2.05c-.33-.5-.8-.75-1.4-.75-.6 0-1.04.25-1.37.75-.33.5-.5 1.18-.5 2.05 0 .87.16 1.55.5 2.05.32.5.79.75 1.38.75.6 0 1.06-.25 1.4-.75.33-.5.49-1.18.49-2.05zm9-4.72c-.46.25-.86.63-1.2 1.15h-.03V8.72h-3v9.86h3.23v-4.33c0-.94.22-1.66.65-2.16.43-.5 1.06-.75 1.88-.75.3 0 .62.03.99.1V8.68a3.66 3.66 0 0 0-2.53.25zm3.84-1.63h3.22V4.76h-3.22zm0 11.28h3.22V8.72h-3.22zm14.23-2.77c0 1.16.1 2.1.3 2.77h-2.92c-.1-.36-.14-.79-.14-1.28h-.03a3.74 3.74 0 0 1-3.2 1.54 3.49 3.49 0 0 1-2.5-.86 2.84 2.84 0 0 1-.9-2.17c0-.87.3-1.56.9-2.08.6-.52 1.6-.89 3.02-1.1.8-.13 1.6-.23 2.37-.28V12c0-.53-.13-.92-.37-1.17a1.34 1.34 0 0 0-1.01-.38c-.44 0-.78.12-1.02.36s-.37.58-.38 1.02h-3.1c.04-1 .45-1.82 1.2-2.46.75-.64 1.85-.96 3.3-.96 1.5 0 2.62.34 3.37 1.02.74.68 1.1 1.67 1.1 2.98zm-3.1-1.7c-.63.03-1.21.1-1.75.2-.48.1-.83.24-1.04.44-.22.2-.32.47-.32.82s.1.63.33.83c.22.2.53.3.93.3.26 0 .5-.04.75-.13a1.57 1.57 0 0 0 1-1.07c.06-.25.1-.6.1-1.03v-.35zm10.88-5.64a3.52 3.52 0 0 0-2.87 1.44h-.04V8.72h-3.01v9.86h3.22v-5.1c0-.83.15-1.46.44-1.88.29-.42.7-.63 1.2-.63.48 0 .83.16 1.08.47.24.32.37.8.37 1.43v5.71h3.2v-6.06c0-1.32-.31-2.32-.95-3.02a3.44 3.44 0 0 0-2.65-1.04zm17.4 0c-.71 0-1.32.15-1.83.44-.52.3-.96.72-1.33 1.27a2.9 2.9 0 0 0-1.16-1.28 3.47 3.47 0 0 0-1.76-.42c-1.16 0-2.1.46-2.77 1.38h-.04V8.72h-3.01v9.86h3.22v-5c0-.86.13-1.5.4-1.95.26-.44.65-.66 1.15-.66.42 0 .74.15.97.46.22.3.33.74.33 1.3v5.85h3.23v-5c0-.86.13-1.5.39-1.95.26-.44.64-.66 1.14-.66.42 0 .74.16.96.47.23.32.34.8.34 1.43v5.71h3.23v-6.06c0-1.32-.31-2.32-.93-3.02a3.21 3.21 0 0 0-2.53-1.04zm14.1 7.35c0 1.16.1 2.1.3 2.77h-2.92c-.1-.36-.14-.79-.14-1.28h-.03a3.74 3.74 0 0 1-3.2 1.54 3.49 3.49 0 0 1-2.5-.86 2.84 2.84 0 0 1-.9-2.17c0-.87.3-1.56.9-2.08.6-.52 1.6-.89 3.02-1.1.8-.13 1.6-.23 2.37-.28v-.35c0-.53-.13-.92-.37-1.17a1.34 1.34 0 0 0-1.01-.38c-.44 0-.78.12-1.02.36s-.37.58-.38 1.02h-3.1c.04-1 .45-1.82 1.2-2.46.75-.64 1.85-.96 3.3-.96 1.5 0 2.62.34 3.37 1.02.74.68 1.1 1.67 1.1 2.98zm-3.1-1.7c-.63.03-1.21.1-1.75.2-.5.1-.83.24-1.04.44-.22.2-.32.47-.32.82s.1.63.32.83c.23.2.54.3.94.3.26 0 .5-.04.74-.13a1.5 1.5 0 0 0 1.01-1.07c.06-.25.1-.6.1-1.03v-.35zm9.16 1.74c-.2-.22-.3-.6-.3-1.13v-3.66h1.67V8.72h-1.66V6.06h-3.22v2.66h-1.55v2.34h1.54v4.4c0 1.14.28 1.98.84 2.5.56.52 1.47.78 2.7.78a6.55 6.55 0 0 0 1.64-.22V16.1c-.22.07-.46.1-.72.1-.44 0-.75-.1-.95-.34zm7.46 0c-.2-.22-.3-.6-.3-1.13v-3.66h1.88V8.72h-1.86V6.06h-3.24v2.66h-1.3v2.34h1.3v4.4c0 1.14.29 1.98.85 2.5s1.47.78 2.7.78a6.56 6.56 0 0 0 1.64-.22V16.1c-.22.07-.46.1-.72.1-.44 0-.76-.1-.95-.34zm9.27-7.39a3.37 3.37 0 0 0-2.66 1.25h-.04V4.76h-3.23v13.82h3.24v-5.1c0-.83.14-1.46.43-1.88.3-.42.7-.63 1.22-.63.47 0 .82.16 1.07.47.24.32.37.8.37 1.43v5.71h3.22v-6.06c0-1.32-.32-2.32-.96-3.02a3.45 3.45 0 0 0-2.66-1.04zm5.49-1.16h3.22V4.76h-3.22V7.3zm0 11.28h3.22V8.72h-3.22v9.86zm14.24-2.77c0 1.16.1 2.1.29 2.77h-2.92a5.37 5.37 0 0 1-.13-1.28h-.04a3.74 3.74 0 0 1-3.2 1.54 3.48 3.48 0 0 1-2.5-.86 2.84 2.84 0 0 1-.9-2.17c0-.87.3-1.56.9-2.08.6-.52 1.6-.89 3.02-1.1.82-.13 1.6-.23 2.37-.28v-.35c0-.53-.12-.92-.37-1.17a1.34 1.34 0 0 0-1-.38c-.45 0-.8.12-1.03.36-.24.24-.36.58-.38 1.02h-3.1c.05-1 .45-1.82 1.2-2.46.75-.64 1.85-.96 3.3-.96 1.5 0 2.63.34 3.37 1.02.75.68 1.12 1.67 1.12 2.98zm-3.11-1.7c-.62.03-1.2.1-1.75.2-.48.1-.83.24-1.04.44-.21.2-.32.47-.32.82s.1.63.33.83c.22.2.53.3.93.3.26 0 .5-.04.75-.13.24-.08.44-.2.6-.38.2-.2.34-.43.4-.69.07-.25.1-.6.1-1.03v-.35zm13.15-.1c-.37-.43-.8-.76-1.32-.97a16.3 16.3 0 0 0-2-.65c-.56-.14-.98-.26-1.25-.36-.27-.1-.47-.2-.6-.33a.64.64 0 0 1-.18-.47c0-.25.1-.44.3-.58.2-.13.49-.2.85-.2.88 0 1.32.42 1.32 1.26h3.07c0-1.09-.38-1.9-1.14-2.46a5.4 5.4 0 0 0-3.23-.84c-1.37 0-2.44.3-3.2.86a2.66 2.66 0 0 0-1.15 2.23 2.56 2.56 0 0 0 1.66 2.56c.46.18 1.07.37 1.84.56.63.17 1.1.31 1.39.41.29.1.5.23.66.37.15.14.22.33.22.57a.7.7 0 0 1-.32.6 1.6 1.6 0 0 1-.92.21c-1.01 0-1.52-.46-1.52-1.4h-3.24c0 1.18.4 2.06 1.2 2.65.82.58 1.99.87 3.52.87a5.8 5.8 0 0 0 3.36-.86 2.7 2.7 0 0 0 1.22-2.3c0-.72-.18-1.3-.54-1.73z"/>
</svg>
