<?xml version="1.0" encoding="UTF-8"?><svg id="Ebene_1" xmlns="http://www.w3.org/2000/svg" viewBox="0 0 2000 705.42"><defs><style>.cls-1{fill:#c60b1e;}</style></defs><path class="cls-1" d="m390.8,323.26v-67.37L105.95,156.32l-105.95-.26v115.19l98.91,51.48,291.89.53Zm-24.53-23.51H106.15l-81.63-42.48v-77.7h76.33l265.41,92.78v27.4Z"/><path class="cls-1" d="m390.8,420.36v-67.93H101.06L0,404.88v116.16h105.2l285.6-100.68ZM24.53,497.33v-78.35l81.63-42.84h260.12v27.63l-265.41,93.56H24.53Z"/><path class="cls-1" d="m0,550.2v118.81h370.8l57.58-54.53v-178.02l-317.4,113.74H0Zm24.53,94.28v-69.76h89.93l289.4-103.42v132.63l-42.82,40.54H24.53Z"/><path class="cls-1" d="m0,0v126.38l310.3,1.08,118.08,115.61V0H0Zm320.34,102.97l-295.81-1.03V24.53h379.33v160.21l-83.52-81.77Z"/><path class="cls-1" d="m357,35.39c-19.84,0-35.99,16.14-35.99,35.99s16.14,36,35.99,36,36-16.14,36-36-16.14-35.99-36-35.99Zm11.47,35.99c0,6.33-5.14,11.47-11.47,11.47s-11.46-5.14-11.46-11.47,5.14-11.46,11.46-11.46,11.47,5.14,11.47,11.46Z"/><path class="cls-1" d="m613.99,557.2c-6.63-1.31-14.5-1.97-23.37-1.97-8.26,0-15.79,1.39-22.39,4.13-6.63,2.75-12.33,6.63-16.95,11.53-4.61,4.89-8.16,10.77-10.56,17.46-2.38,6.64-3.58,14.03-3.58,21.96,0,9.01,1.28,16.93,3.81,23.53,2.54,6.65,6.07,12.29,10.47,16.74,4.43,4.51,9.7,7.88,15.62,10.02,11.6,4.18,26.01,4.06,35.91.5,2.21-.81,4.06-1.54,5.59-2.19-.02,8.71-2.18,15.07-6.42,18.9-4.34,3.93-11.79,5.92-22.16,5.92-5.7,0-11.22-.56-16.42-1.66-5.23-1.09-9.72-2.37-13.32-3.78l-3.08-1.21-4.61,21.95,2.34.8c4.42,1.52,9.66,2.84,15.59,3.93,5.96,1.09,12.39,1.65,19.1,1.65,17.51,0,30.85-3.89,39.65-11.54,8.91-7.76,13.43-20.25,13.43-37.11v-95.52l-2.14-.51c-4.47-1.08-9.97-2.26-16.51-3.54Zm-5.65,21.71v57.53c-2.04,1.37-4.72,2.61-7.96,3.71-6.55,2.21-14.82,3.07-22.31.15-3-1.18-5.7-3.05-8.03-5.54-2.34-2.52-4.25-5.79-5.66-9.7-1.42-3.96-2.14-8.86-2.14-14.56,0-10.14,2.52-18.35,7.5-24.36,4.92-5.94,11.82-8.83,21.08-8.83,5.23,0,9.38.23,12.35.67,1.99.29,3.71.61,5.17.93Z"/><path class="cls-1" d="m799.2,569.95c-3.17-4.71-7.58-8.39-13.13-10.94-5.44-2.5-12.46-3.77-20.88-3.77-4.34,0-8.47.46-12.32,1.38-3.76.91-7.19,1.97-10.2,3.13-3.15,1.21-5.72,2.42-7.87,3.72-.99.59-1.86,1.12-2.6,1.59-3.06-2.96-6.69-5.27-10.82-6.92-4.85-1.92-10.88-2.9-17.93-2.9-9.37,0-17.75.62-24.9,1.85-7.23,1.24-12.85,2.37-17.21,3.46l-2.12.52v106.55h24.3v-88.78c.27-.04.57-.1.9-.15,1.55-.26,3.28-.48,5.14-.68,1.91-.2,3.92-.36,6.03-.49,6.58-.43,11.97-.15,15.59,1.63,2.37,1.16,4.22,2.94,5.62,5.41,1.51,2.65,2.58,6.06,3.19,10.11.64,4.22.97,9.41.97,15.46v57.49h24.3v-61.52c0-4.62-.28-9.14-.83-13.43-.46-3.57-1.12-6.93-1.97-10.02,1.2-.75,3.11-1.75,6.19-3.01,3.73-1.53,8.63-2.3,14.52-2.3,4.12,0,7.46.61,9.94,1.82,2.38,1.17,4.23,2.94,5.63,5.42,1.49,2.61,2.52,6,3.07,10.06.59,4.23.88,9.45.88,15.51v57.49h24.3v-61.52c0-7.09-.52-13.74-1.55-19.78-1.06-6.26-3.17-11.76-6.26-16.37Z"/><path class="cls-1" d="m917.18,571.32c-4.27-5.12-9.58-9.16-15.77-12.01-6.17-2.84-13.3-4.28-21.17-4.28-6.31,0-12,.86-16.9,2.57-2.57.9-4.77,1.77-6.65,2.62v-54.79l-24.3,4.18v154.31l2.04.58c4.44,1.23,10.08,2.48,16.75,3.67,6.81,1.23,14.75,1.86,23.62,1.86,8.35,0,16.01-1.35,22.76-4.02,6.76-2.68,12.63-6.54,17.47-11.51,4.79-4.95,8.56-11.06,11.17-18.18,2.58-7.03,3.89-15.04,3.89-23.78,0-8.29-1.09-16.01-3.24-22.95-2.18-7.03-5.44-13.18-9.66-18.26Zm-12.19,41.21c0,11.42-2.81,20.3-8.33,26.37-5.51,6.08-12.73,9.04-22.06,9.04-4.99,0-9.15-.23-12.38-.69-2.17-.29-4.03-.61-5.54-.93v-62.59c2-1.42,4.72-2.84,8.12-4.22,7.97-3.27,18.78-3.2,25.51.2,3.42,1.75,6.22,4.16,8.35,7.17,2.17,3.08,3.79,6.85,4.78,11.17,1.03,4.47,1.54,9.34,1.54,14.47Z"/><path class="cls-1" d="m1038.82,585.97c-1.44-6.29-3.94-11.77-7.46-16.28-3.57-4.59-8.38-8.18-14.28-10.7-5.81-2.49-13.15-3.75-21.81-3.75-4.03,0-8.16.38-12.29,1.15-2.71.51-5.34,1.16-7.85,1.94v-52.9l-24.3,4.18v158h24.3v-87.65c.37-.1.79-.22,1.23-.33,1.46-.39,3.13-.74,5-1.06,1.9-.33,3.9-.62,6.01-.88,6.89-.91,13.08-.27,17.35,1.34,2.86,1.09,5.07,2.77,6.77,5.14,1.76,2.47,3.06,5.82,3.85,9.96.83,4.37,1.26,9.75,1.26,15.98v57.49h24.29v-61.52c0-7.29-.7-14.07-2.07-20.13Z"/><path class="cls-1" d="m587.64,398.54c11.93,0,20.75-1.58,26.51-4.71,5.75-3.13,8.62-8.15,8.62-15.06s-2.82-12.75-8.47-16.93c-5.65-4.18-14.96-8.89-27.92-14.12-6.27-2.5-12.29-5.06-18.04-7.68-5.75-2.62-10.72-5.7-14.9-9.25-4.18-3.56-7.53-7.85-10.03-12.86-2.51-5.03-3.76-11.18-3.76-18.51,0-14.43,5.33-25.88,16-34.35,10.66-8.48,25.19-12.7,43.6-12.7,4.6,0,9.2.26,13.8.78,4.6.53,8.89,1.15,12.86,1.88,3.98.73,7.48,1.52,10.52,2.36,3.02.83,5.38,1.57,7.06,2.2l-5.33,25.09c-3.14-1.67-8.06-3.39-14.74-5.17-6.7-1.78-14.74-2.67-24.16-2.67-8.15,0-15.26,1.62-21.33,4.87-6.08,3.24-9.1,8.31-9.1,15.21,0,3.56.68,6.7,2.04,9.41,1.35,2.72,3.45,5.17,6.27,7.37,2.83,2.2,6.32,4.24,10.51,6.12,4.18,1.88,9.21,3.87,15.06,5.95,7.73,2.93,14.64,5.81,20.71,8.63,6.06,2.82,11.24,6.11,15.52,9.87,4.28,3.76,7.59,8.32,9.89,13.65,2.3,5.33,3.45,11.87,3.45,19.6,0,15.06-5.6,26.46-16.78,34.19-11.18,7.74-27.13,11.61-47.84,11.61-14.43,0-25.71-1.21-33.87-3.61-8.16-2.4-13.7-4.24-16.63-5.49l5.33-25.09c3.35,1.25,8.68,3.13,16,5.65,7.33,2.5,17.04,3.76,29.17,3.76Z"/><path class="cls-1" d="m704.02,226.96c-5.23,0-9.67-1.72-13.32-5.19-3.66-3.45-5.49-8.09-5.49-13.95s1.83-10.51,5.49-13.95c3.65-3.45,8.09-5.17,13.32-5.17s9.67,1.72,13.34,5.17c3.65,3.45,5.49,8.1,5.49,13.95s-1.84,10.51-5.49,13.95c-3.66,3.46-8.1,5.19-13.34,5.19Zm14.74,192.6h-29.17v-163.12h29.17v163.12Z"/><path class="cls-1" d="m871.21,403.24c-2.5,1.68-7.37,3.82-14.59,6.43-7.21,2.63-15.63,3.92-25.25,3.92s-19.08-1.57-27.76-4.7c-8.68-3.13-16.25-8-22.74-14.59-6.49-6.59-11.61-14.79-15.38-24.63-3.76-9.82-5.65-21.53-5.65-35.12,0-11.93,1.78-22.85,5.33-32.78,3.56-9.93,8.74-18.51,15.53-25.72,6.79-7.21,15.1-12.86,24.93-16.94,9.83-4.08,20.91-6.12,33.25-6.12,13.59,0,25.45,1,35.6,2.99,10.14,1.98,18.67,3.81,25.57,5.49v145.55c0,25.09-6.48,43.29-19.44,54.58-12.97,11.29-32.62,16.94-58.98,16.94-10.25,0-19.92-.85-29.01-2.51-9.1-1.68-16.99-3.66-23.68-5.96l5.33-25.41c5.85,2.3,13.02,4.34,21.5,6.12,8.47,1.77,17.29,2.66,26.5,2.66,17.36,0,29.85-3.45,37.48-10.35,7.63-6.9,11.45-17.88,11.45-32.94v-6.9Zm-.32-121.09c-2.93-.83-6.85-1.61-11.76-2.34-4.91-.73-11.57-1.1-19.92-1.1-15.69,0-27.76,5.13-36.23,15.38-8.48,10.25-12.7,23.84-12.7,40.77,0,9.41,1.19,17.47,3.61,24.16,2.4,6.7,5.64,12.23,9.72,16.63,4.08,4.4,8.78,7.64,14.11,9.73,5.34,2.09,10.83,3.13,16.47,3.13,7.74,0,14.85-1.09,21.34-3.29,6.48-2.2,11.6-4.76,15.36-7.69v-95.36Z"/><path class="cls-1" d="m950.26,261.15c6.7-1.67,15.53-3.45,26.51-5.33,10.98-1.88,23.68-2.83,38.11-2.83,10.45,0,19.23,1.42,26.34,4.24,7.11,2.82,13.08,6.95,17.89,12.39,1.45-1.04,3.75-2.5,6.9-4.38,3.13-1.88,7-3.72,11.6-5.49,4.6-1.78,9.73-3.35,15.38-4.71,5.65-1.35,11.71-2.04,18.19-2.04,12.55,0,22.79,1.84,30.74,5.49,7.95,3.66,14.17,8.84,18.67,15.53,4.5,6.7,7.53,14.64,9.1,23.84,1.57,9.2,2.36,19.24,2.36,30.11v91.6h-29.17v-85.32c0-9.62-.47-17.88-1.42-24.79-.94-6.9-2.72-12.65-5.33-17.25-2.62-4.6-6.17-8-10.66-10.2-4.5-2.19-10.3-3.29-17.4-3.29-9.84,0-17.93,1.31-24.31,3.92-6.38,2.62-10.72,4.97-13.02,7.06,1.67,5.44,2.93,11.41,3.76,17.88.83,6.49,1.25,13.29,1.25,20.39v91.6h-29.17v-85.32c0-9.62-.52-17.88-1.57-24.79-1.05-6.9-2.87-12.65-5.49-17.25-2.62-4.6-6.17-8-10.66-10.2-4.5-2.19-10.19-3.29-17.09-3.29-2.94,0-6.08.11-9.41.32-3.35.21-6.54.47-9.57.79-3.03.3-5.81.68-8.32,1.09-2.5.42-4.18.73-5.02.95v137.7h-29.17v-158.41Z"/><path class="cls-1" d="m1273.03,252.36c11.71,0,21.6,1.51,29.65,4.54,8.05,3.03,14.53,7.33,19.44,12.86,4.91,5.55,8.42,12.13,10.52,19.76,2.09,7.64,3.13,16.05,3.13,25.25v101.96c-2.51.42-6.02.99-10.51,1.72-4.5.73-9.57,1.41-15.22,2.03-5.65.63-11.77,1.21-18.35,1.74-6.58.52-13.12.78-19.6.78-9.21,0-17.67-.94-25.41-2.82-7.74-1.88-14.43-4.87-20.08-8.94-5.65-4.08-10.04-9.47-13.18-16.16-3.13-6.68-4.7-14.73-4.7-24.15s1.83-16.73,5.49-23.22c3.65-6.47,8.62-11.7,14.89-15.68,6.28-3.97,13.59-6.9,21.96-8.78,8.36-1.88,17.15-2.83,26.35-2.83,2.93,0,5.96.16,9.1.47,3.13.32,6.12.73,8.94,1.25,2.82.53,5.28,1,7.37,1.42,2.09.42,3.55.73,4.4.94v-8.15c0-4.81-.53-9.57-1.58-14.28-1.05-4.7-2.93-8.88-5.64-12.55-2.73-3.65-6.44-6.58-11.14-8.78-4.71-2.2-10.82-3.29-18.35-3.29-9.63,0-18.04.68-25.25,2.04-7.21,1.36-12.6,2.77-16.16,4.23l-3.45-24.15c3.76-1.68,10.04-3.29,18.82-4.87,8.78-1.57,18.29-2.34,28.54-2.34Zm2.51,146.18c6.9,0,13.02-.16,18.35-.47,5.33-.32,9.77-.89,13.34-1.72v-48.63c-2.1-1.04-5.49-1.93-10.2-2.66-4.7-.73-10.4-1.1-17.09-1.1-4.4,0-9.05.32-13.97.95s-9.41,1.94-13.48,3.92c-4.08,1.98-7.48,4.7-10.2,8.15-2.72,3.45-4.08,8-4.08,13.65,0,10.46,3.35,17.72,10.04,21.8,6.68,4.08,15.78,6.12,27.29,6.12Z"/><path class="cls-1" d="m1515.36,398.54c11.93,0,20.75-1.58,26.51-4.71,5.75-3.13,8.62-8.15,8.62-15.06s-2.82-12.75-8.47-16.93c-5.65-4.18-14.96-8.89-27.92-14.12-6.27-2.5-12.29-5.06-18.04-7.68-5.75-2.62-10.72-5.7-14.9-9.25-4.18-3.56-7.53-7.85-10.03-12.86-2.51-5.03-3.76-11.18-3.76-18.51,0-14.43,5.33-25.88,16-34.35,10.66-8.48,25.19-12.7,43.6-12.7,4.6,0,9.2.26,13.8.78,4.6.53,8.89,1.15,12.86,1.88,3.98.73,7.48,1.52,10.52,2.36,3.02.83,5.38,1.57,7.06,2.2l-5.33,25.09c-3.14-1.67-8.06-3.39-14.74-5.17-6.7-1.78-14.74-2.67-24.16-2.67-8.15,0-15.26,1.62-21.33,4.87-6.08,3.24-9.1,8.31-9.1,15.21,0,3.56.68,6.7,2.04,9.41,1.35,2.72,3.45,5.17,6.27,7.37,2.83,2.2,6.32,4.24,10.51,6.12,4.18,1.88,9.21,3.87,15.06,5.95,7.73,2.93,14.64,5.81,20.71,8.63,6.06,2.82,11.24,6.11,15.52,9.87,4.28,3.76,7.59,8.32,9.89,13.65,2.3,5.33,3.45,11.87,3.45,19.6,0,15.06-5.6,26.46-16.78,34.19-11.18,7.74-27.13,11.61-47.84,11.61-14.43,0-25.71-1.21-33.87-3.61-8.16-2.4-13.7-4.24-16.63-5.49l5.33-25.09c3.35,1.25,8.68,3.13,16,5.65,7.33,2.5,17.04,3.76,29.17,3.76Z"/><path class="cls-1" d="m1644.6,256.43h61.79v24.47h-61.79v75.29c0,8.15.63,14.9,1.88,20.23,1.26,5.33,3.14,9.51,5.65,12.55,2.51,3.03,5.65,5.17,9.41,6.43,3.76,1.26,8.16,1.88,13.18,1.88,8.78,0,15.84-.99,21.17-2.98,5.33-1.98,9.04-3.39,11.14-4.24l5.65,24.16c-2.93,1.47-8.05,3.29-15.38,5.49-7.32,2.2-15.68,3.29-25.09,3.29-11.08,0-20.23-1.41-27.45-4.24-7.21-2.82-13.02-7.06-17.4-12.7-4.4-5.65-7.48-12.59-9.25-20.85-1.78-8.26-2.67-17.83-2.67-28.7v-145.56l29.17-5.02v50.5Z"/><path class="cls-1" d="m1796.11,252.36c11.71,0,21.6,1.51,29.65,4.54,8.05,3.03,14.53,7.33,19.44,12.86,4.91,5.55,8.42,12.13,10.52,19.76,2.09,7.64,3.13,16.05,3.13,25.25v101.96c-2.51.42-6.02.99-10.51,1.72-4.5.73-9.57,1.41-15.22,2.03-5.65.63-11.77,1.21-18.35,1.74-6.58.52-13.12.78-19.6.78-9.21,0-17.67-.94-25.41-2.82-7.74-1.88-14.43-4.87-20.08-8.94-5.65-4.08-10.04-9.47-13.18-16.16-3.13-6.68-4.7-14.73-4.7-24.15s1.83-16.73,5.49-23.22c3.65-6.47,8.62-11.7,14.89-15.68,6.28-3.97,13.59-6.9,21.96-8.78,8.36-1.88,17.15-2.83,26.35-2.83,2.93,0,5.96.16,9.1.47,3.13.32,6.12.73,8.94,1.25,2.82.53,5.28,1,7.37,1.42,2.09.42,3.55.73,4.4.94v-8.15c0-4.81-.53-9.57-1.58-14.28-1.05-4.7-2.93-8.88-5.64-12.55-2.73-3.65-6.44-6.58-11.14-8.78-4.71-2.2-10.82-3.29-18.35-3.29-9.63,0-18.04.68-25.25,2.04-7.21,1.36-12.6,2.77-16.16,4.23l-3.45-24.15c3.76-1.68,10.04-3.29,18.82-4.87,8.78-1.57,18.29-2.34,28.54-2.34Zm2.51,146.18c6.9,0,13.02-.16,18.35-.47,5.33-.32,9.77-.89,13.34-1.72v-48.63c-2.1-1.04-5.49-1.93-10.2-2.66-4.7-.73-10.4-1.1-17.09-1.1-4.4,0-9.05.32-13.97.95-4.91.63-9.41,1.94-13.48,3.92-4.08,1.98-7.48,4.7-10.2,8.15-2.72,3.45-4.08,8-4.08,13.65,0,10.46,3.35,17.72,10.04,21.8,6.68,4.08,15.78,6.12,27.29,6.12Z"/><path class="cls-1" d="m1967.38,252.98c2.51,0,5.39.16,8.62.47,3.25.32,6.44.73,9.57,1.25,3.14.53,6.01,1.05,8.62,1.58,2.62.52,4.55.99,5.81,1.41l-5.02,25.41c-2.3-.83-6.12-1.83-11.45-2.99-5.33-1.14-12.19-1.72-20.54-1.72-5.44,0-10.82.59-16.16,1.72-5.33,1.16-8.83,1.94-10.51,2.36v137.08h-29.17v-156.21c6.9-2.51,15.48-4.87,25.72-7.06,10.25-2.2,21.74-3.3,34.5-3.3Z"/></svg>