<svg xmlns="http://www.w3.org/2000/svg" fill="none" viewBox="0 0 140 15">
  <path fill="#000" d="M5.13 0c.55 0 1.07.06 1.53.18v2.21a2.35 2.35 0 0 0-.46-.04c-.5 0-.86.11-1.1.33-.22.22-.34.59-.34 1.1v.36h1.82v2.35H4.76V14H1.57V6.5H0V4.14h1.57v-.72c0-1.14.3-2 .91-2.56C3.1.29 3.98 0 5.13 0ZM8.5 14h3.23V.18H8.5V14ZM23.3 6.3c.43.78.65 1.7.65 2.77 0 1.06-.22 1.99-.65 2.78a4.49 4.49 0 0 1-1.85 1.83c-.8.42-1.72.64-2.78.64-1.07 0-2-.22-2.79-.64a4.47 4.47 0 0 1-1.84-1.83 5.68 5.68 0 0 1-.65-2.78c0-1.06.21-1.99.65-2.78a4.49 4.49 0 0 1 1.84-1.82c.8-.43 1.73-.65 2.79-.65s1.99.22 2.78.65c.8.42 1.41 1.03 1.85 1.82Zm-2.75 2.77c0-.87-.16-1.55-.5-2.05-.33-.5-.79-.75-1.39-.75-.6 0-1.05.25-1.38.75-.33.5-.5 1.18-.5 2.05 0 .87.16 1.55.5 2.05.32.5.79.75 1.38.75.6 0 1.06-.25 1.4-.75.33-.5.49-1.18.49-2.05Zm9-4.72c-.46.25-.86.63-1.2 1.15h-.03V4.14h-3V14h3.23V9.67c0-.94.22-1.66.65-2.16.43-.5 1.06-.75 1.88-.75.3 0 .62.03.99.1V4.1a3.66 3.66 0 0 0-2.53.25Zm3.84-1.63h3.22V.18h-3.22v2.54Zm0 11.28h3.22V4.14h-3.22V14Zm14.23-2.77c0 1.16.1 2.09.3 2.77h-2.92c-.1-.36-.14-.79-.14-1.28h-.03a3.74 3.74 0 0 1-3.2 1.54 3.49 3.49 0 0 1-2.5-.86 2.84 2.84 0 0 1-.9-2.17c0-.87.3-1.56.9-2.08.6-.52 1.6-.89 3.02-1.1.81-.13 1.6-.23 2.37-.28v-.35c0-.53-.13-.92-.37-1.17a1.34 1.34 0 0 0-1.01-.38c-.44 0-.78.12-1.02.36s-.37.58-.38 1.02h-3.1c.04-1 .45-1.82 1.2-2.46.75-.64 1.85-.96 3.3-.96 1.5 0 2.62.34 3.37 1.02.74.68 1.11 1.67 1.11 2.98v3.4Zm-3.1-1.7c-.63.03-1.21.1-1.75.2-.48.1-.83.24-1.04.44-.22.2-.32.47-.32.82s.1.63.33.83c.22.2.53.3.93.3.26 0 .5-.04.75-.13a1.57 1.57 0 0 0 1-1.07c.06-.25.1-.6.1-1.03v-.35ZM55.4 3.89a3.52 3.52 0 0 0-2.87 1.44h-.04V4.14h-3.01V14h3.22V8.9c0-.83.15-1.46.44-1.88.29-.42.7-.63 1.21-.63.47 0 .82.16 1.07.47.24.32.37.8.37 1.43V14H59V7.94c0-1.32-.32-2.32-.96-3.02a3.44 3.44 0 0 0-2.65-1.04Zm17.4 0c-.71 0-1.32.15-1.83.44-.52.3-.96.72-1.33 1.27-.28-.56-.66-1-1.16-1.28a3.47 3.47 0 0 0-1.76-.42c-1.16 0-2.09.46-2.77 1.38h-.04V4.14H60.9V14h3.22V9c0-.86.13-1.5.4-1.95.26-.44.65-.66 1.15-.66.42 0 .74.15.97.46.22.3.33.74.33 1.3V14h3.23V9c0-.86.13-1.5.39-1.95.26-.44.64-.66 1.14-.66.42 0 .74.16.96.47.23.32.34.8.34 1.43V14h3.23V7.94c0-1.32-.31-2.32-.93-3.02a3.21 3.21 0 0 0-2.53-1.04Zm14.1 7.35c0 1.16.1 2.09.3 2.77h-2.92c-.1-.36-.14-.79-.14-1.28h-.03a3.74 3.74 0 0 1-3.2 1.54 3.49 3.49 0 0 1-2.5-.86 2.84 2.84 0 0 1-.9-2.17c0-.87.3-1.56.9-2.08.6-.52 1.6-.89 3.02-1.1.81-.13 1.6-.23 2.37-.28v-.35c0-.53-.13-.92-.37-1.17a1.34 1.34 0 0 0-1.01-.38c-.44 0-.78.12-1.02.36s-.37.58-.38 1.02h-3.1c.04-1 .45-1.82 1.2-2.46.75-.64 1.85-.96 3.3-.96 1.5 0 2.62.34 3.37 1.02.74.68 1.11 1.67 1.11 2.98v3.4Zm-3.1-1.7c-.63.03-1.21.1-1.75.2-.49.1-.83.24-1.04.44-.22.2-.32.47-.32.82s.1.63.32.83c.23.2.54.3.94.3.26 0 .5-.04.74-.13.25-.08.45-.2.62-.38.2-.2.32-.43.39-.69.06-.25.1-.6.1-1.03v-.35Zm9.16 1.74c-.2-.22-.29-.6-.29-1.13V6.49h1.66V4.14h-1.66V1.48h-3.22v2.66H87.9v2.34h1.54v4.4c0 1.14.28 1.98.84 2.5.56.52 1.47.78 2.7.78a6.55 6.55 0 0 0 1.64-.22v-2.43c-.22.07-.46.1-.72.1-.44 0-.75-.1-.95-.34Zm7.46 0c-.2-.22-.3-.6-.3-1.13V6.49H102V4.14h-1.86V1.48H96.9v2.66h-1.3v2.34h1.3v4.4c0 1.14.29 1.98.85 2.5s1.47.78 2.7.78a6.56 6.56 0 0 0 1.64-.22v-2.43c-.22.07-.46.1-.72.1-.44 0-.76-.1-.95-.34Zm9.27-7.39c-.55 0-1.05.11-1.5.33-.45.2-.84.52-1.16.92h-.04V.18h-3.23V14H107V8.9c0-.83.14-1.46.43-1.88.3-.42.7-.63 1.22-.63.47 0 .82.16 1.07.47.24.32.37.8.37 1.43V14h3.22V7.94c0-1.32-.32-2.32-.96-3.02a3.45 3.45 0 0 0-2.66-1.04Zm5.49-1.16h3.22V.18h-3.22v2.54Zm0 11.28h3.22V4.14h-3.22V14Zm14.24-2.77c0 1.16.1 2.09.29 2.77h-2.92c-.09-.36-.13-.79-.13-1.28h-.04a3.74 3.74 0 0 1-3.2 1.54 3.48 3.48 0 0 1-2.49-.86 2.84 2.84 0 0 1-.91-2.17c0-.87.3-1.56.9-2.08.6-.52 1.6-.89 3.02-1.1.82-.13 1.6-.23 2.37-.28v-.35c0-.53-.12-.92-.37-1.17a1.34 1.34 0 0 0-1-.38c-.45 0-.79.12-1.03.36s-.36.58-.38 1.02h-3.1c.05-1 .45-1.82 1.2-2.46.75-.64 1.85-.96 3.3-.96 1.5 0 2.63.34 3.37 1.02.75.68 1.12 1.67 1.12 2.98v3.4Zm-3.11-1.7c-.62.03-1.2.1-1.75.2-.48.1-.83.24-1.04.44-.21.2-.32.47-.32.82s.11.63.33.83c.22.2.53.3.93.3.26 0 .51-.04.75-.13.24-.08.44-.2.61-.38.2-.2.33-.43.4-.69.06-.25.09-.6.09-1.03v-.35Zm13.15-.1c-.37-.43-.8-.76-1.32-.97-.5-.21-1.18-.43-2-.65-.56-.14-.98-.26-1.25-.36-.27-.1-.47-.2-.6-.33a.64.64 0 0 1-.18-.47c0-.25.1-.44.3-.58.2-.13.49-.2.85-.2.88 0 1.32.42 1.32 1.26h3.07c0-1.09-.38-1.9-1.14-2.46a5.4 5.4 0 0 0-3.23-.84c-1.37 0-2.44.29-3.2.86a2.66 2.66 0 0 0-1.15 2.23c0 .7.16 1.25.49 1.66.32.4.71.7 1.17.9.46.18 1.07.37 1.84.56.63.17 1.1.31 1.39.41.29.1.5.23.66.37.15.14.22.33.22.57a.7.7 0 0 1-.32.59 1.6 1.6 0 0 1-.92.22c-1.01 0-1.52-.46-1.52-1.4h-3.24c0 1.18.4 2.06 1.21 2.65.81.58 1.98.87 3.51.87 1.42 0 2.54-.29 3.36-.86a2.7 2.7 0 0 0 1.22-2.3c0-.72-.18-1.3-.54-1.73Z"/>
</svg>
