<?xml version="1.0" encoding="UTF-8" standalone="no"?>
<svg
   viewBox="0 0 142 34"
   version="1.1"
   id="svg2"
   sodipodi:docname="iacbox.svg"
   width="142"
   height="34"
   inkscape:version="1.3.2 (091e20ef0f, 2023-11-25)"
   xmlns:inkscape="http://www.inkscape.org/namespaces/inkscape"
   xmlns:sodipodi="http://sodipodi.sourceforge.net/DTD/sodipodi-0.dtd"
   xmlns="http://www.w3.org/2000/svg"
   xmlns:svg="http://www.w3.org/2000/svg">
  <defs
     id="defs2" />
  <sodipodi:namedview
     id="namedview2"
     pagecolor="#ffffff"
     bordercolor="#666666"
     borderopacity="1.0"
     inkscape:showpageshadow="2"
     inkscape:pageopacity="0.0"
     inkscape:pagecheckerboard="0"
     inkscape:deskcolor="#d1d1d1"
     showgrid="false"
     inkscape:zoom="4.7086883"
     inkscape:cx="63.181077"
     inkscape:cy="1.2742402"
     inkscape:window-width="1916"
     inkscape:window-height="1156"
     inkscape:window-x="0"
     inkscape:window-y="0"
     inkscape:window-maximized="1"
     inkscape:current-layer="svg2" />
  <g
     fill="none"
     fill-rule="evenodd"
     id="g2"
     transform="translate(5.72285,5.2188608)">
    <path
       fill="#ffb900"
       d="M 0,23 H 5 V 0 H 0 Z M 19,17.1 17.4,23 H 12 L 19.03,0 h 6.8 L 33,23 H 27.4 L 25.62,17.1 Z M 24.84,13.2 23.4,8.34 C 23.03,6.97 22.62,5.24 22.28,3.9 h -0.1 C 21.87,5.27 21.49,7 21.15,8.34 l -1.4,4.88 h 5.09 z M 54.7,23 c -0.91,0.45 -3.07,1 -5.8,1 C 41.05,24 37,18.97 37,12.31 37,4.38 42.53,0 49.4,0 52.07,0 54.09,0.55 55,1.03 L 53.92,5.17 A 10.62,10.62 0 0 0 49.61,4.31 c -4.05,0 -7.22,2.52 -7.22,7.72 0,4.66 2.7,7.6 7.25,7.6 1.58,0 3.27,-0.32 4.32,-0.77 z"
       id="path1" />
    <path
       fill="#141414"
       d="M 62,0.53 C 63.36,0.25 66.08,0 68.7,0 c 3.16,0 5.1,0.32 6.76,1.33 a 5.14,5.14 0 0 1 2.72,4.65 c 0,2.07 -1.19,4 -3.74,5 v 0.08 a 5.84,5.84 0 0 1 4.56,5.8 c 0,2.17 -0.95,3.85 -2.38,5 C 74.95,23.23 72.17,24 67.61,24 65.06,24 63.16,23.83 62,23.65 Z m 5.13,8.99 h 1.7 c 2.76,0 4.19,-1.16 4.19,-2.9 0,-1.8 -1.33,-2.74 -3.68,-2.74 -1.15,0 -1.8,0.07 -2.2,0.18 v 5.46 z m 0,10.46 c 0.51,0.1 1.13,0.1 2.01,0.1 2.35,0 4.42,-0.94 4.42,-3.43 0,-2.38 -2.07,-3.32 -4.66,-3.32 H 67.13 Z M 96.76,24 C 90.01,24 86,18.8 86,12.17 86,5.21 90.41,0 97.14,0 104.16,0 108,5.35 108,11.76 108,19.4 103.48,24 96.8,24 Z M 97,19.83 c 3.5,0 5.5,-3.35 5.5,-7.9 0,-4.17 -1.93,-7.76 -5.5,-7.76 -3.57,0 -5.57,3.52 -5.57,7.86 0,4.38 2.07,7.8 5.54,7.8 z m 28.94,3.17 -2.1,-4.16 c -0.86,-1.6 -1.41,-2.8 -2.06,-4.13 h -0.07 c -0.48,1.33 -1.07,2.52 -1.83,4.13 L 117.98,23 H 112 L 118.71,11.36 112.24,0 h 6.03 l 2.03,4.2 c 0.68,1.4 1.2,2.52 1.75,3.82 h 0.07 c 0.55,-1.47 1,-2.5 1.58,-3.82 L 125.67,0 h 5.99 L 125.12,11.23 132,23 Z"
       id="path2" />
  </g>
</svg>
