<svg id="Open_Reply" data-name="Open Reply" xmlns="http://www.w3.org/2000/svg" viewBox="0 0 300 93.68"><defs><style>.cls-1{fill:#7ecdc3;}.cls-2{fill:#004f5a;}</style></defs><title>logo_Open-Reply</title><g id="Logo"><g id="RUNNING_MAN" data-name="RUNNING MAN"><path class="cls-1" d="M71.81,0a8,8,0,1,0,8,8A8,8,0,0,0,71.81,0Z"/><path class="cls-1" d="M54.25,33.7l10-13.17a2,2,0,0,0,.11-2.31L60.11,11.4a2,2,0,0,0-1.74-1L40,10.57H30A.83.83,0,0,0,29.45,12l2.82,2.27a3.09,3.09,0,0,0,1.37.63L51.1,18.24,29.49,41.46l-28.44,4a1.23,1.23,0,0,0-.73,2.06l2.78,3a2.85,2.85,0,0,0,2.13.9L32.69,51a5.72,5.72,0,0,0,2.88-.83l6.58-4L56,57.17a2.7,2.7,0,0,1,1,1.75l2.64,19.46A1.85,1.85,0,0,0,61.5,80h1.41a1.85,1.85,0,0,0,1.85-1.84l.08-21.59a5.16,5.16,0,0,0-1-3.09L51.72,37.12Z"/></g><path class="cls-2" d="M123.36,61.24,113.9,44.11h-7.51V61.24H96.13V13h22.54c10,0,16.26,6.57,16.26,15.53,0,8.45-5.42,13.08-10.62,14.3l10.91,18.35Zm1-32.73c0-4-3.11-6.43-7.15-6.43H106.39v13h10.84C121.27,35.08,124.38,32.63,124.38,28.51Z"/><path class="cls-2" d="M142.58,61.24V13h34.1v9H152.84V32.19h23.34v9H152.84v11h23.84v9Z"/><path class="cls-2" d="M184.7,61.24V13h22.54c10.48,0,16.18,7.08,16.18,15.53S217.64,44,207.24,44H195V61.24Zm28.25-32.66c0-4-3.11-6.5-7.15-6.5H195V35h10.84C209.84,35,212.95,32.56,212.95,28.58Z"/><path class="cls-2" d="M229.42,61.24V13h10.33V52.21h20.37v9Z"/><path class="cls-2" d="M271.32,61.24V41.51L252.82,13h11.7l11.92,19.29L288.37,13H300L281.58,41.51V61.24Z"/><path class="cls-1" d="M95.24,83.29a10.26,10.26,0,1,1,20.53,0,10.26,10.26,0,1,1-20.53,0Zm16.92,0c0-4.15-2.62-7.25-6.65-7.25s-6.65,3.1-6.65,7.25,2.59,7.25,6.65,7.25S112.16,87.41,112.16,83.29Z"/><path class="cls-1" d="M119.14,93.31V73.24H128c4.21,0,6.53,2.86,6.53,6.29s-2.35,6.26-6.53,6.26h-5.33v7.52Zm11.77-13.79a3.14,3.14,0,0,0-3.4-3.19h-4.85v6.35h4.85A3.13,3.13,0,0,0,130.91,79.53Z"/><path class="cls-1" d="M137.47,93.31V73.24h13.75v3.1H141v5.18h10v3.1H141v5.6h10.23v3.1Z"/><path class="cls-1" d="M168.84,93.31,158.36,79V93.31h-3.52V73.24h3.61l10.26,13.91V73.24h3.52V93.31Z"/></g></svg>