<?xml version="1.0" encoding="UTF-8"?><svg id="Ebene_1" xmlns="http://www.w3.org/2000/svg" viewBox="0 0 1596.33 2000"><defs><style>.cls-1{fill:#c60b1e;}</style></defs><path class="cls-1" d="m1133.61,637.73h-574.83l-194.58-105.64v-227.68h201.31l568.09,207.13v126.19Zm-566.89-31.26h535.63v-73.05l-542.36-197.75h-164.53v177.82l171.26,92.98Z"/><path class="cls-1" d="m565.51,1040.74h-201.31v-227.68l194.58-105.64h574.83v126.18l-568.09,207.14Zm-170.05-31.26h164.53l542.36-197.76v-73.04h-535.63l-171.26,92.98v177.82Z"/><path class="cls-1" d="m1098.78,1330.09H364.2v-221.26h216.14l629-225.39v341.95l-110.57,104.7Zm-703.32-31.26h690.86l91.76-86.89v-284.09l-592.31,212.24h-190.32v158.74Z"/><path class="cls-1" d="m1209.34,459.17l-225.17-220.44-619.97-2.16V0h845.14v459.17ZM395.46,205.42l601.51,2.09,181.11,177.32V31.26H395.46v174.16Z"/><path class="cls-1" d="m1074.58,198.21c-34.99,0-63.45-28.47-63.45-63.45s28.46-63.45,63.45-63.45,63.45,28.46,63.45,63.45-28.46,63.45-63.45,63.45Zm0-95.64c-17.76,0-32.2,14.44-32.2,32.19s14.44,32.2,32.2,32.2,32.2-14.44,32.2-32.2-14.44-32.19-32.2-32.19Z"/><path class="cls-1" d="m607.17,1838.26c-7.23-1.43-15.83-2.14-25.5-2.14-9.01,0-17.23,1.51-24.43,4.5-7.23,3-13.45,7.23-18.49,12.58-5.03,5.34-8.9,11.75-11.52,19.05-2.6,7.25-3.91,15.31-3.91,23.96,0,9.83,1.39,18.47,4.16,25.68,2.78,7.26,6.63,13.41,11.43,18.27,4.84,4.92,10.58,8.6,17.04,10.94,12.66,4.56,28.39,4.43,39.18.55,2.41-.88,4.43-1.68,6.1-2.4-.02,9.51-2.38,16.44-7.01,20.63-4.73,4.29-12.87,6.46-24.18,6.46-6.22,0-12.24-.61-17.92-1.81-5.71-1.19-10.61-2.59-14.54-4.12l-3.36-1.32-5.03,23.95,2.55.87c4.83,1.66,10.55,3.1,17.02,4.29,6.51,1.19,13.53,1.8,20.84,1.8,19.1,0,33.66-4.24,43.27-12.6,9.72-8.47,14.66-22.09,14.66-40.49v-104.23l-2.34-.56c-4.87-1.18-10.88-2.47-18.02-3.86Zm-6.16,23.69v62.78c-2.23,1.49-5.15,2.85-8.69,4.05-7.15,2.41-16.17,3.35-24.35.17-3.28-1.29-6.22-3.32-8.76-6.04-2.55-2.75-4.64-6.32-6.17-10.58-1.55-4.33-2.34-9.66-2.34-15.88,0-11.07,2.75-20.02,8.19-26.59,5.37-6.48,12.89-9.64,23-9.64,5.71,0,10.24.25,13.48.73,2.17.32,4.05.67,5.64,1.01Z"/><path class="cls-1" d="m809.27,1852.16c-3.46-5.14-8.27-9.15-14.32-11.94-5.93-2.73-13.6-4.11-22.78-4.11-4.73,0-9.25.5-13.44,1.5-4.1.99-7.84,2.14-11.13,3.42-3.43,1.32-6.24,2.65-8.59,4.06-1.08.64-2.03,1.23-2.84,1.74-3.34-3.23-7.3-5.76-11.81-7.56-5.29-2.1-11.87-3.17-19.57-3.17-10.22,0-19.36.68-27.17,2.01-7.89,1.36-14.03,2.59-18.78,3.78l-2.31.57v116.27h26.51v-96.88c.3-.05.62-.11.98-.17,1.69-.29,3.57-.52,5.61-.74,2.09-.21,4.28-.39,6.58-.54,7.19-.46,13.06-.17,17.02,1.78,2.59,1.26,4.6,3.21,6.14,5.9,1.64,2.9,2.81,6.61,3.48,11.03.7,4.6,1.06,10.27,1.06,16.87v62.74h26.51v-67.14c0-5.04-.31-9.97-.91-14.66-.5-3.9-1.23-7.57-2.14-10.94,1.31-.82,3.4-1.91,6.76-3.29,4.08-1.67,9.41-2.51,15.85-2.51,4.49,0,8.14.67,10.84,1.99,2.6,1.28,4.61,3.21,6.15,5.91,1.62,2.85,2.75,6.54,3.35,10.98.64,4.61.97,10.31.97,16.92v62.74h26.51v-67.14c0-7.73-.57-14.99-1.69-21.58-1.16-6.83-3.46-12.83-6.83-17.86Z"/><path class="cls-1" d="m938.02,1853.66c-4.66-5.59-10.45-10-17.21-13.11-6.73-3.1-14.51-4.67-23.11-4.67-6.89,0-13.1.94-18.45,2.8-2.8.98-5.21,1.93-7.26,2.86v-59.79l-26.51,4.56v168.39l2.23.63c4.85,1.35,11,2.71,18.28,4,7.44,1.35,16.1,2.03,25.78,2.03,9.12,0,17.47-1.48,24.83-4.39,7.38-2.92,13.79-7.14,19.07-12.56,5.23-5.4,9.34-12.07,12.19-19.84,2.81-7.67,4.24-16.41,4.24-25.95,0-9.04-1.19-17.47-3.54-25.05-2.38-7.67-5.93-14.38-10.55-19.92Zm-13.3,44.97c0,12.46-3.06,22.15-9.09,28.78-6.02,6.64-13.89,9.87-24.07,9.87-5.45,0-9.99-.25-13.51-.75-2.37-.32-4.4-.67-6.04-1.01v-68.31c2.18-1.55,5.15-3.1,8.87-4.6,8.7-3.56,20.5-3.49,27.84.21,3.73,1.91,6.79,4.54,9.12,7.83,2.37,3.36,4.14,7.47,5.22,12.19,1.12,4.87,1.68,10.19,1.68,15.79Z"/><path class="cls-1" d="m1070.76,1869.64c-1.57-6.86-4.3-12.85-8.14-17.77-3.9-5-9.14-8.93-15.59-11.68-6.34-2.72-14.35-4.09-23.8-4.09-4.4,0-8.9.42-13.41,1.25-2.96.56-5.83,1.26-8.57,2.12v-57.72l-26.51,4.56v172.42h26.51v-95.64c.41-.11.86-.24,1.35-.36,1.6-.43,3.42-.81,5.46-1.16,2.07-.36,4.25-.68,6.55-.97,7.52-.99,14.28-.3,18.94,1.47,3.12,1.19,5.53,3.03,7.39,5.61,1.92,2.69,3.34,6.35,4.21,10.87.91,4.77,1.37,10.64,1.37,17.43v62.74h26.5v-67.14c0-7.96-.76-15.35-2.26-21.96Z"/><path class="cls-1" d="m55.11,1650.65c13.01,0,22.65-1.72,28.93-5.14,6.27-3.42,9.41-8.89,9.41-16.43s-3.08-13.91-9.24-18.48c-6.16-4.56-16.32-9.71-30.47-15.41-6.84-2.73-13.41-5.52-19.68-8.38-6.27-2.85-11.7-6.22-16.26-10.1-4.56-3.89-8.22-8.56-10.95-14.04-2.74-5.49-4.11-12.2-4.11-20.2,0-15.74,5.82-28.24,17.45-37.48,11.64-9.25,27.49-13.86,47.58-13.86,5.02,0,10.04.28,15.06.85,5.02.58,9.71,1.25,14.04,2.05,4.34.8,8.17,1.66,11.48,2.57,3.3.91,5.87,1.71,7.7,2.4l-5.82,27.38c-3.43-1.82-8.79-3.7-16.09-5.65-7.31-1.94-16.09-2.92-26.36-2.92-8.89,0-16.66,1.77-23.27,5.31-6.63,3.53-9.93,9.07-9.93,16.59,0,3.89.74,7.31,2.23,10.27,1.48,2.96,3.76,5.65,6.84,8.04,3.09,2.4,6.9,4.63,11.46,6.68,4.56,2.05,10.05,4.22,16.43,6.49,8.44,3.2,15.98,6.33,22.6,9.42,6.62,3.08,12.26,6.67,16.94,10.78,4.67,4.11,8.28,9.08,10.79,14.9,2.51,5.82,3.76,12.95,3.76,21.39,0,16.43-6.11,28.87-18.32,37.31-12.2,8.45-29.61,12.67-52.2,12.67-15.74,0-28.06-1.32-36.96-3.94-8.91-2.62-14.95-4.63-18.14-5.99l5.82-27.38c3.65,1.37,9.47,3.42,17.45,6.16,8,2.73,18.6,4.11,31.83,4.11Z"/><path class="cls-1" d="m182.1,1463.41c-5.71,0-10.55-1.88-14.54-5.66-4-3.76-5.99-8.83-5.99-15.23s1.99-11.46,5.99-15.23c3.99-3.76,8.83-5.65,14.54-5.65s10.55,1.88,14.55,5.65c3.99,3.76,5.99,8.84,5.99,15.23s-2.01,11.46-5.99,15.23c-4,3.78-8.84,5.66-14.55,5.66Zm16.09,210.17h-31.83v-178h31.83v178Z"/><path class="cls-1" d="m364.54,1655.78c-2.73,1.83-8.04,4.17-15.92,7.01-7.87,2.87-17.06,4.28-27.55,4.28s-20.83-1.71-30.3-5.13c-9.47-3.42-17.74-8.73-24.81-15.92-7.09-7.2-12.67-16.14-16.78-26.88-4.11-10.71-6.16-23.49-6.16-38.33,0-13.01,1.94-24.93,5.82-35.77,3.89-10.84,9.53-20.2,16.95-28.07,7.41-7.87,16.48-14.04,27.21-18.49,10.73-4.45,22.82-6.68,36.29-6.68,14.83,0,27.77,1.09,38.85,3.26,11.07,2.16,20.37,4.16,27.9,5.99v158.83c0,27.38-7.07,47.23-21.22,59.56-14.16,12.33-35.6,18.49-64.36,18.49-11.18,0-21.74-.92-31.66-2.74-9.93-1.83-18.54-4-25.84-6.51l5.82-27.73c6.38,2.51,14.21,4.74,23.46,6.68,9.24,1.93,18.87,2.9,28.92,2.9,18.94,0,32.57-3.76,40.9-11.29,8.33-7.53,12.5-19.51,12.5-35.94v-7.53Zm-.34-132.13c-3.2-.91-7.48-1.76-12.83-2.56-5.36-.8-12.62-1.21-21.74-1.21-17.12,0-30.3,5.6-39.53,16.78-9.25,11.18-13.86,26.02-13.86,44.49,0,10.27,1.3,19.07,3.94,26.36,2.62,7.31,6.15,13.35,10.6,18.14,4.45,4.8,9.58,8.34,15.4,10.62,5.83,2.28,11.82,3.42,17.97,3.42,8.45,0,16.2-1.19,23.29-3.59,7.07-2.4,12.66-5.19,16.77-8.39v-104.06Z"/><path class="cls-1" d="m450.81,1500.71c7.31-1.82,16.95-3.76,28.93-5.82,11.98-2.05,25.84-3.09,41.59-3.09,11.4,0,20.98,1.55,28.75,4.63,7.76,3.08,14.27,7.59,19.52,13.52,1.59-1.13,4.1-2.73,7.53-4.78,3.42-2.05,7.64-4.06,12.66-5.99,5.02-1.94,10.62-3.65,16.78-5.14,6.16-1.48,12.78-2.23,19.85-2.23,13.69,0,24.87,2.01,33.54,5.99,8.67,4,15.46,9.64,20.37,16.95,4.91,7.31,8.22,15.98,9.93,26.02,1.71,10.04,2.57,21,2.57,32.86v99.96h-31.83v-93.1c0-10.49-.52-19.51-1.55-27.05-1.02-7.53-2.96-13.8-5.82-18.82-2.85-5.02-6.73-8.73-11.64-11.13-4.91-2.39-11.24-3.59-18.99-3.59-10.74,0-19.57,1.43-26.53,4.28-6.96,2.85-11.7,5.42-14.21,7.7,1.82,5.94,3.2,12.45,4.11,19.51.91,7.09,1.37,14.5,1.37,22.25v99.96h-31.83v-93.1c0-10.49-.57-19.51-1.71-27.05-1.14-7.53-3.14-13.8-5.99-18.82-2.85-5.02-6.73-8.73-11.64-11.13-4.91-2.39-11.12-3.59-18.65-3.59-3.21,0-6.63.12-10.27.34-3.65.23-7.13.52-10.44.86-3.31.33-6.33.74-9.08,1.19-2.73.46-4.56.8-5.47,1.03v150.27h-31.83v-172.86Z"/><path class="cls-1" d="m803.03,1491.13c12.78,0,23.57,1.65,32.35,4.96,8.78,3.31,15.86,8,21.22,14.04,5.36,6.05,9.19,13.24,11.48,21.56,2.28,8.34,3.42,17.52,3.42,27.55v111.26c-2.74.46-6.57,1.08-11.46,1.88-4.91.8-10.44,1.54-16.61,2.21-6.16.69-12.84,1.32-20.03,1.89-7.18.57-14.32.85-21.39.85-10.05,0-19.29-1.02-27.73-3.08-8.45-2.05-15.74-5.31-21.91-9.75-6.16-4.45-10.96-10.33-14.38-17.64-3.42-7.29-5.13-16.08-5.13-26.35s1.99-18.25,5.99-25.34c3.99-7.06,9.41-12.77,16.25-17.11,6.85-4.33,14.83-7.53,23.96-9.58,9.13-2.05,18.71-3.09,28.76-3.09,3.2,0,6.51.17,9.93.52,3.42.34,6.68.8,9.75,1.37,3.08.58,5.76,1.09,8.04,1.55,2.28.46,3.87.8,4.8,1.02v-8.89c0-5.25-.58-10.44-1.72-15.58-1.14-5.13-3.2-9.69-6.15-13.69-2.98-3.99-7.02-7.18-12.15-9.58-5.14-2.4-11.81-3.59-20.03-3.59-10.5,0-19.68.74-27.55,2.23-7.87,1.49-13.75,3.03-17.64,4.61l-3.76-26.35c4.11-1.83,10.96-3.59,20.54-5.31,9.58-1.71,19.96-2.56,31.15-2.56Zm2.74,159.52c7.53,0,14.21-.17,20.03-.52,5.82-.34,10.66-.97,14.55-1.88v-53.07c-2.29-1.13-5.99-2.1-11.13-2.9-5.13-.8-11.35-1.21-18.65-1.21-4.8,0-9.88.34-15.24,1.03-5.36.69-10.27,2.12-14.71,4.28-4.45,2.16-8.17,5.13-11.13,8.89-2.96,3.76-4.45,8.73-4.45,14.9,0,11.42,3.65,19.34,10.96,23.79,7.29,4.45,17.22,6.68,29.78,6.68Z"/><path class="cls-1" d="m1067.47,1650.65c13.01,0,22.65-1.72,28.93-5.14,6.27-3.42,9.41-8.89,9.41-16.43s-3.08-13.91-9.24-18.48c-6.16-4.56-16.32-9.71-30.47-15.41-6.84-2.73-13.41-5.52-19.68-8.38-6.27-2.85-11.7-6.22-16.26-10.1-4.56-3.89-8.22-8.56-10.95-14.04-2.74-5.49-4.11-12.2-4.11-20.2,0-15.74,5.82-28.24,17.45-37.48,11.64-9.25,27.49-13.86,47.58-13.86,5.02,0,10.04.28,15.06.85,5.02.58,9.71,1.25,14.04,2.05,4.34.8,8.17,1.66,11.48,2.57,3.3.91,5.87,1.71,7.7,2.4l-5.82,27.38c-3.43-1.82-8.79-3.7-16.09-5.65-7.31-1.94-16.09-2.92-26.36-2.92-8.89,0-16.66,1.77-23.27,5.31-6.63,3.53-9.93,9.07-9.93,16.59,0,3.89.74,7.31,2.23,10.27,1.48,2.96,3.76,5.65,6.84,8.04,3.09,2.4,6.9,4.63,11.46,6.68,4.56,2.05,10.05,4.22,16.43,6.49,8.44,3.2,15.98,6.33,22.6,9.42,6.62,3.08,12.26,6.67,16.94,10.78,4.67,4.11,8.28,9.08,10.79,14.9,2.51,5.82,3.76,12.95,3.76,21.39,0,16.43-6.11,28.87-18.32,37.31-12.2,8.45-29.61,12.67-52.2,12.67-15.74,0-28.06-1.32-36.96-3.94-8.91-2.62-14.95-4.63-18.14-5.99l5.82-27.38c3.65,1.37,9.47,3.42,17.45,6.16,8,2.73,18.6,4.11,31.83,4.11Z"/><path class="cls-1" d="m1208.5,1495.57h67.43v26.7h-67.43v82.16c0,8.89.69,16.26,2.05,22.08,1.38,5.82,3.43,10.38,6.16,13.69,2.74,3.31,6.16,5.65,10.27,7.01,4.11,1.38,8.91,2.05,14.38,2.05,9.58,0,17.28-1.08,23.1-3.25,5.82-2.16,9.87-3.7,12.15-4.63l6.16,26.36c-3.2,1.6-8.78,3.59-16.78,5.99-7.98,2.4-17.11,3.59-27.38,3.59-12.09,0-22.08-1.54-29.95-4.63-7.87-3.08-14.21-7.7-18.99-13.86-4.8-6.16-8.17-13.74-10.1-22.76-1.94-9.02-2.92-19.46-2.92-31.32v-158.84l31.83-5.47v55.11Z"/><path class="cls-1" d="m1373.83,1491.13c12.78,0,23.57,1.65,32.35,4.96,8.78,3.31,15.86,8,21.22,14.04,5.36,6.05,9.19,13.24,11.48,21.56,2.28,8.34,3.42,17.52,3.42,27.55v111.26c-2.74.46-6.57,1.08-11.46,1.88-4.91.8-10.44,1.54-16.61,2.21-6.16.69-12.84,1.32-20.03,1.89-7.18.57-14.32.85-21.39.85-10.05,0-19.29-1.02-27.73-3.08-8.45-2.05-15.74-5.31-21.91-9.75-6.16-4.45-10.96-10.33-14.38-17.64-3.42-7.29-5.13-16.08-5.13-26.35s1.99-18.25,5.99-25.34c3.99-7.06,9.41-12.77,16.25-17.11,6.85-4.33,14.83-7.53,23.96-9.58,9.13-2.05,18.71-3.09,28.76-3.09,3.2,0,6.51.17,9.93.52,3.42.34,6.68.8,9.75,1.37,3.08.58,5.76,1.09,8.04,1.55,2.28.46,3.87.8,4.8,1.02v-8.89c0-5.25-.58-10.44-1.72-15.58-1.14-5.13-3.2-9.69-6.15-13.69-2.98-3.99-7.02-7.18-12.15-9.58-5.14-2.4-11.81-3.59-20.03-3.59-10.5,0-19.68.74-27.55,2.23-7.87,1.49-13.75,3.03-17.64,4.61l-3.76-26.35c4.11-1.83,10.96-3.59,20.54-5.31,9.58-1.71,19.96-2.56,31.15-2.56Zm2.74,159.52c7.53,0,14.21-.17,20.03-.52,5.82-.34,10.66-.97,14.55-1.88v-53.07c-2.29-1.13-5.99-2.1-11.13-2.9-5.13-.8-11.35-1.21-18.65-1.21-4.8,0-9.88.34-15.24,1.03-5.36.69-10.27,2.12-14.71,4.28-4.45,2.16-8.17,5.13-11.13,8.89-2.96,3.76-4.45,8.73-4.45,14.9,0,11.42,3.65,19.34,10.96,23.79,7.29,4.45,17.22,6.68,29.78,6.68Z"/><path class="cls-1" d="m1560.73,1491.81c2.74,0,5.88.17,9.41.52,3.54.34,7.02.8,10.44,1.37,3.43.58,6.56,1.14,9.41,1.72,2.85.57,4.97,1.08,6.33,1.54l-5.47,27.73c-2.51-.91-6.68-1.99-12.5-3.26-5.82-1.24-13.3-1.88-22.41-1.88-5.94,0-11.81.64-17.64,1.88-5.82,1.27-9.63,2.12-11.46,2.57v149.59h-31.83v-170.46c7.53-2.74,16.89-5.31,28.07-7.7,11.18-2.4,23.73-3.6,37.65-3.6Z"/></svg>