<?xml version="1.0" standalone="no"?>
<!DOCTYPE svg PUBLIC "-//W3C//DTD SVG 20010904//EN"
 "http://www.w3.org/TR/2001/REC-SVG-20010904/DTD/svg10.dtd">
<svg version="1.0" xmlns="http://www.w3.org/2000/svg"
 width="3000.000000pt" height="3000.000000pt" viewBox="0 0 3000.000000 3000.000000"
 preserveAspectRatio="xMidYMid meet">
<metadata>
Created by potrace 1.14, written by Peter Selinger 2001-2017
</metadata>
<g transform="translate(0.000000,3000.000000) scale(0.100000,-0.100000)"
fill="#000000" stroke="none">
<path d="M0 15000 l0 -15000 15000 0 15000 0 0 15000 0 15000 -15000 0 -15000
0 0 -15000z m10650 13185 c36 -10 103 -35 150 -57 165 -78 289 -241 340 -443
23 -92 40 -291 40 -482 l0 -133 -245 0 -245 0 0 198 c0 309 -23 385 -135 445
-58 32 -202 31 -261 0 -51 -27 -99 -81 -116 -130 -18 -53 -25 -1961 -8 -2043
18 -84 50 -131 112 -166 48 -26 62 -29 143 -29 99 0 145 17 197 72 59 62 62
84 66 481 l3 362 -115 0 -116 0 0 235 0 235 358 -2 357 -3 3 -475 c4 -685 -10
-834 -92 -1005 -45 -94 -92 -157 -160 -214 -122 -104 -257 -150 -462 -158
-255 -11 -430 38 -574 161 -104 89 -184 234 -221 401 -22 98 -22 115 -26 995
-5 941 0 1110 37 1256 49 196 177 364 330 436 86 40 170 67 250 79 84 12 316
2 390 -16z m12900 -4 c246 -66 409 -233 481 -496 19 -70 22 -113 26 -347 l5
-268 -241 0 -241 0 0 193 c0 314 -23 390 -135 450 -58 32 -202 31 -261 0 -54
-29 -100 -83 -116 -135 -10 -34 -13 -255 -13 -1049 l0 -1005 30 -59 c24 -47
40 -63 83 -88 131 -73 313 -33 372 82 33 66 40 145 40 478 l0 323 -115 0 -115
0 0 235 0 235 355 0 356 0 -3 -627 c-4 -615 -4 -630 -26 -708 -75 -267 -226
-424 -478 -497 -70 -20 -100 -23 -259 -22 -168 0 -186 2 -270 28 -107 33 -164
62 -239 124 -117 99 -189 230 -233 427 -14 60 -17 204 -20 995 -3 604 -1 964
6 1040 22 242 84 396 210 520 109 109 230 166 397 189 105 15 316 5 404 -18z
m-16172 -243 l-3 -233 -442 -3 -443 -2 0 -450 0 -450 353 -2 352 -3 3 -232 2
-233 -355 0 -355 0 0 -480 0 -480 445 0 445 0 -2 -232 -3 -233 -697 -3 -698
-2 0 1635 0 1635 700 0 700 0 -2 -232z m1217 -733 l260 -966 3 966 2 965 230
0 230 0 -2 -1632 -3 -1633 -262 -3 -262 -2 -11 42 c-81 307 -622 2304 -626
2307 -2 2 -4 -525 -4 -1172 l0 -1177 -230 0 -230 0 0 1635 0 1635 323 0 322 0
260 -965z m3423 -667 l-3 -1633 -252 -3 -253 -2 0 1635 0 1635 255 0 255 0 -2
-1632z m1277 663 l260 -965 3 967 2 967 230 0 230 0 -2 -1632 -3 -1633 -262
-3 c-243 -2 -262 -1 -267 15 -3 10 -145 538 -316 1173 -172 635 -314 1157
-316 1159 -2 2 -4 -525 -4 -1172 l0 -1177 -230 0 -230 0 0 1635 0 1635 322 -2
323 -3 260 -964z m2493 737 l-3 -233 -442 -3 -443 -2 0 -450 0 -450 350 0 350
0 0 -235 0 -235 -350 0 -350 0 0 -480 0 -480 445 0 445 0 -2 -232 -3 -233
-697 -3 -698 -2 0 1635 0 1635 700 0 700 0 -2 -232z m1712 -3 l0 -235 -440 0
-440 0 0 -450 0 -450 350 0 350 0 0 -235 0 -235 -350 0 -350 0 0 -480 0 -480
440 0 440 0 0 -235 0 -235 -697 2 -698 3 -3 1633 -2 1632 700 0 700 0 0 -235z
m1303 221 c309 -51 475 -210 533 -514 34 -181 26 -618 -15 -763 -47 -167 -134
-281 -276 -365 -16 -9 -11 -14 40 -43 107 -61 172 -141 217 -271 47 -136 50
-164 58 -655 7 -434 9 -476 29 -549 11 -44 21 -83 21 -88 0 -4 -116 -7 -257
-6 l-258 3 -19 55 c-18 50 -20 96 -27 530 -7 492 -9 524 -52 606 -25 49 -91
101 -148 118 -36 11 -94 16 -186 16 l-133 0 0 -665 0 -665 -252 2 -253 3 -3
1633 -2 1632 447 0 c340 0 469 -4 536 -14z m1405 -1618 l-3 -1633 -252 -3
-253 -2 0 1635 0 1635 255 0 255 0 -2 -1632z m1277 663 l260 -965 3 967 2 967
230 0 230 0 -2 -1632 -3 -1633 -262 -3 c-243 -2 -262 -1 -267 15 -3 10 -145
538 -317 1173 -171 635 -313 1157 -315 1159 -2 2 -4 -525 -4 -1172 l0 -1177
-230 0 -230 0 0 1635 0 1635 322 -2 323 -3 260 -964z m-6663 -3450 c254 -66
422 -238 496 -508 l27 -98 3 -970 c2 -675 0 -1000 -8 -1070 -14 -120 -57 -256
-110 -346 -84 -142 -245 -254 -425 -296 -118 -27 -380 -24 -490 5 -127 35
-219 86 -306 172 -119 118 -183 264 -209 470 -13 109 -13 1896 0 1999 22 168
70 296 153 408 98 132 260 222 455 253 94 15 326 4 414 -19z m1788 4 c36 -9
103 -34 150 -57 241 -116 370 -384 370 -770 l0 -98 -244 0 -244 0 -3 148 c-4
140 -6 150 -34 207 -47 95 -121 131 -248 122 -93 -6 -151 -42 -190 -118 -57
-111 -47 -320 22 -464 51 -107 119 -186 395 -460 150 -148 296 -301 324 -340
75 -101 158 -268 189 -382 26 -91 28 -111 28 -288 0 -164 -3 -202 -23 -280
-67 -267 -231 -439 -481 -507 -106 -29 -369 -31 -486 -5 -261 60 -429 232
-501 512 -22 85 -27 130 -31 303 l-6 202 246 0 245 0 4 -197 c3 -184 5 -201
27 -242 46 -88 124 -131 237 -131 66 0 152 31 186 68 63 67 88 181 71 319 -28
222 -102 324 -549 753 -174 168 -262 280 -339 435 -87 175 -99 230 -99 480 0
184 3 220 22 290 50 185 164 350 292 422 66 38 190 81 268 93 83 13 325 4 402
-15z m-5078 -718 l3 -703 335 701 335 700 253 3 c138 1 252 1 252 -1 0 -2
-160 -329 -356 -727 l-355 -724 349 -886 c252 -639 348 -890 342 -905 -7 -19
-16 -20 -256 -20 l-248 0 -246 642 c-135 353 -248 645 -251 648 -3 3 -39 -57
-80 -132 l-74 -138 -5 -510 -5 -510 -159 0 -159 0 -96 210 -96 210 -3 1423 -2
1422 260 0 260 0 2 -703z m1926 -929 l-3 -1633 -252 -3 -253 -2 0 1635 0 1635
255 0 255 0 -2 -1632z m4484 927 l3 -706 336 703 336 703 253 3 c200 2 251 0
247 -10 -3 -7 -161 -332 -353 -723 -191 -390 -347 -716 -347 -725 1 -8 159
-415 352 -903 193 -489 351 -893 351 -898 0 -6 -101 -8 -261 -7 l-261 3 -243
635 c-134 349 -247 641 -252 648 -5 9 -32 -32 -83 -125 l-75 -138 -5 -510 -5
-510 -252 -3 -253 -2 0 1635 0 1635 255 0 255 0 2 -705z m-6897 -2491 c31 -71
31 -76 -2 -72 -27 3 -28 6 -31 66 -2 34 0 62 3 62 3 0 16 -25 30 -56z m-7484
-16108 c89 -19 159 -56 203 -108 52 -60 69 -128 64 -247 -6 -164 -63 -246
-206 -299 -82 -30 -252 -41 -358 -23 -143 24 -249 102 -279 205 -20 67 -19
210 2 275 31 98 120 169 246 196 82 18 246 18 328 1z m4660 0 c138 -30 220
-94 250 -198 7 -27 6 -28 -26 -28 -27 0 -34 5 -39 25 -8 33 -61 92 -100 112
-58 30 -131 43 -243 43 -137 0 -195 -12 -264 -53 -42 -25 -60 -44 -81 -86 -24
-47 -28 -66 -28 -144 0 -115 14 -162 66 -214 61 -60 141 -83 293 -83 163 0
243 24 308 92 34 35 63 94 63 128 0 19 -6 20 -160 20 l-160 0 0 30 0 30 190 0
190 0 0 -176 0 -175 -22 3 c-21 3 -24 10 -28 71 l-5 69 -23 -31 c-60 -82 -208
-127 -391 -118 -142 6 -220 31 -286 89 -79 70 -90 101 -90 258 0 119 3 140 22
175 43 81 125 136 237 160 81 18 245 18 327 1z m2123 -1 c123 -26 187 -81 202
-173 7 -42 6 -42 -25 -42 -26 0 -31 4 -31 24 0 38 -42 89 -95 116 -48 24 -57
25 -230 24 -146 0 -188 -3 -225 -17 -63 -25 -90 -53 -90 -94 0 -89 42 -106
334 -143 211 -27 283 -48 325 -95 28 -32 31 -42 31 -100 0 -77 -23 -111 -97
-143 -117 -50 -391 -56 -506 -12 -94 35 -147 106 -147 194 0 24 4 27 26 24 23
-3 29 -10 39 -53 28 -107 110 -140 339 -132 167 5 212 15 258 56 25 22 31 35
31 69 0 87 -45 105 -337 142 -285 36 -346 67 -353 177 -5 73 17 111 81 143 97
47 332 64 470 35z m1134 -10 c86 -26 142 -86 157 -168 7 -36 6 -37 -23 -37
-26 0 -31 4 -36 35 -11 55 -62 99 -139 120 -54 14 -92 17 -214 12 -219 -7
-288 -38 -281 -128 2 -36 8 -47 36 -65 41 -28 85 -38 292 -64 202 -25 268 -43
317 -84 33 -29 37 -38 41 -93 7 -100 -28 -141 -153 -179 -87 -27 -356 -27
-435 -1 -102 35 -159 102 -160 190 0 36 2 38 27 35 24 -3 28 -9 35 -48 10 -59
57 -103 133 -126 46 -13 88 -15 209 -12 160 5 219 18 263 60 28 26 31 92 8
126 -23 32 -124 58 -315 82 -185 23 -254 38 -303 69 -43 26 -57 58 -57 128 0
51 3 59 35 88 37 35 105 62 189 76 81 13 313 3 374 -16z m-9870 -37 c10 -29
59 -167 107 -307 78 -222 90 -251 99 -230 6 13 70 150 142 304 l131 280 35 3
35 3 138 -296 c76 -163 142 -298 146 -300 3 -3 53 128 110 291 56 163 108 298
115 301 7 2 21 3 32 1 18 -3 10 -31 -97 -338 l-118 -335 -37 0 -37 0 -142 303
c-77 166 -144 299 -148 295 -4 -5 -69 -142 -145 -305 l-138 -298 -35 0 -36 0
-114 328 c-63 180 -116 333 -119 340 -3 8 6 12 26 12 28 0 32 -5 50 -52z
m2662 -263 l0 -315 280 0 280 0 0 -25 0 -25 -310 0 -310 0 0 340 0 340 30 0
30 0 0 -315z m1550 290 l0 -25 -300 0 -300 0 0 -135 0 -135 255 0 255 0 0 -30
0 -30 -255 0 -255 0 0 -150 0 -150 -30 0 -30 0 0 340 0 340 330 0 330 0 0 -25z
m397 -160 c92 -102 170 -184 174 -183 4 2 80 84 170 183 151 167 166 180 201
183 21 2 38 0 38 -3 0 -3 -85 -99 -190 -213 l-189 -207 -1 -127 0 -128 -30 0
-30 0 0 126 0 125 -53 57 c-29 31 -117 128 -196 215 l-143 157 41 0 c39 0 43
-3 208 -185z m3144 -155 l187 -340 -33 0 c-31 0 -36 5 -70 65 l-36 65 -269 0
-270 0 -29 -52 c-17 -29 -34 -59 -38 -66 -5 -8 -21 -12 -39 -10 l-31 3 186
338 186 337 35 0 35 0 186 -340z m2709 25 l0 -315 285 0 285 0 0 -25 0 -25
-315 0 -315 0 0 340 0 340 30 0 30 0 0 -315z m1560 290 l0 -25 -300 0 -300 0
0 -135 0 -135 278 -2 277 -3 0 -25 0 -25 -277 -3 -278 -2 0 -125 0 -125 300 0
300 0 0 -25 0 -25 -330 0 -330 0 0 340 0 340 330 0 330 0 0 -25z m944 -5 c75
-38 91 -66 91 -158 0 -87 -20 -135 -61 -154 l-24 -11 34 -29 c45 -37 56 -77
56 -200 l0 -98 -29 0 -28 0 -5 110 c-7 175 -17 180 -345 180 l-223 0 0 -145 0
-145 -30 0 -30 0 0 341 0 340 273 -3 c267 -3 273 -3 321 -28z m-7513 -1554
c138 -30 220 -94 250 -198 7 -27 6 -28 -26 -28 -27 0 -34 5 -39 25 -8 33 -61
92 -100 112 -58 30 -131 43 -243 43 -137 0 -195 -12 -264 -53 -42 -25 -60 -44
-81 -86 -24 -47 -28 -66 -28 -144 0 -115 14 -162 66 -214 61 -60 141 -83 293
-83 163 0 243 24 308 92 34 35 63 94 63 128 0 19 -6 20 -160 20 l-160 0 0 30
0 30 190 0 190 0 0 -176 0 -175 -22 3 c-21 3 -24 10 -28 71 l-5 69 -23 -31
c-60 -82 -208 -127 -391 -118 -142 6 -220 31 -286 89 -79 70 -90 101 -90 258
0 119 3 140 22 175 43 81 125 136 237 160 81 18 245 18 327 1z m-4914 -331
c100 -181 182 -334 182 -338 1 -5 -14 -7 -31 -5 -29 3 -37 11 -67 66 l-35 62
-270 0 -271 0 -34 -65 c-32 -60 -37 -65 -69 -65 -18 0 -31 3 -29 8 2 4 86 157
187 340 l183 333 35 -3 36 -3 183 -330z m854 30 l294 -305 3 305 2 305 30 0
30 0 0 -340 0 -340 -39 0 c-37 0 -46 8 -332 305 -162 167 -297 305 -301 305
-5 0 -8 -137 -8 -305 l0 -305 -25 0 -25 0 0 340 0 340 38 0 c37 0 48 -10 333
-305z m1367 282 c159 -47 222 -136 222 -316 0 -149 -39 -230 -136 -283 -85
-46 -177 -58 -434 -58 l-230 0 0 341 0 341 263 -5 c196 -3 275 -8 315 -20z
m689 -162 c92 -102 170 -184 174 -183 4 2 80 84 170 183 151 167 166 180 201
183 21 2 38 0 38 -3 0 -3 -85 -99 -190 -213 l-189 -207 -1 -127 0 -128 -30 0
-30 0 0 126 0 125 -53 57 c-29 31 -117 128 -196 215 l-143 157 41 0 c39 0 43
-3 208 -185z m3193 174 c93 -21 140 -83 140 -183 0 -68 -12 -101 -51 -137
l-31 -29 26 -21 c43 -34 51 -58 56 -182 l5 -117 -32 0 -33 0 0 95 c0 188 -13
195 -335 195 l-225 0 0 -145 0 -145 -30 0 -30 0 0 340 0 340 248 0 c136 0 267
-5 292 -11z m552 -206 c4 -249 11 -279 81 -338 65 -56 121 -70 277 -70 195 0
278 34 333 139 20 38 22 59 25 264 l4 222 30 0 29 0 -3 -227 c-3 -213 -4 -231
-26 -278 -62 -134 -197 -192 -427 -182 -193 8 -301 61 -357 175 -22 44 -23 60
-26 280 l-4 232 30 0 30 0 4 -217z m1539 -88 l294 -305 3 305 2 305 30 0 30 0
0 -340 0 -340 -39 0 c-37 0 -46 8 -332 305 -162 167 -297 305 -301 305 -5 0
-8 -137 -8 -305 l0 -305 -25 0 -25 0 0 340 0 340 38 0 c37 0 48 -10 333 -305z
m829 5 c57 -165 107 -300 110 -300 3 0 68 135 145 301 l139 300 35 -3 35 -3
143 -305 c79 -168 143 -303 143 -300 0 3 47 140 105 304 58 165 105 301 105
303 0 1 14 3 30 3 17 0 30 -3 30 -6 0 -4 -52 -157 -117 -340 l-116 -334 -36 0
-36 0 -139 301 c-77 165 -143 302 -146 304 -3 2 -69 -132 -147 -298 l-140
-302 -38 0 -37 0 -68 195 c-38 107 -91 259 -118 338 l-50 142 31 0 32 0 105
-300z m1817 -35 c100 -181 182 -334 182 -338 1 -5 -14 -7 -31 -5 -29 3 -37 11
-67 66 l-35 62 -270 0 -271 0 -34 -65 c-32 -60 -37 -65 -69 -65 -18 0 -31 3
-29 8 2 4 86 157 187 340 l183 333 35 -3 36 -3 183 -330z m533 20 l0 -315 285
0 285 0 0 -25 0 -25 -315 0 -315 0 0 340 0 340 30 0 30 0 0 -315z m1433 301
c195 -38 267 -126 267 -326 0 -158 -40 -235 -148 -290 -78 -38 -175 -50 -423
-50 l-229 0 0 340 0 340 229 0 c158 0 253 -4 304 -14z"/>
<path d="M18332 27203 l3 -498 115 -3 c207 -6 299 32 355 143 l30 60 3 270 c5
356 -10 421 -106 490 l-44 30 -179 3 -179 4 2 -499z"/>
<path d="M14476 23300 c-52 -16 -103 -60 -132 -113 l-29 -52 -3 -995 c-2 -706
0 -1010 8 -1047 25 -117 116 -183 250 -183 64 0 86 5 131 28 70 35 114 99 126
180 4 31 8 487 8 1012 0 902 -1 958 -18 1010 -25 73 -49 105 -104 137 -38 22
-60 27 -127 30 -45 1 -94 -2 -110 -7z"/>
<path d="M3230 4376 c-62 -18 -100 -39 -137 -78 -44 -45 -63 -105 -63 -197 0
-209 105 -291 370 -291 162 0 242 24 307 92 44 45 63 105 63 198 0 156 -61
238 -205 276 -63 17 -274 17 -335 0z"/>
<path d="M9018 4160 l-116 -210 234 0 c129 0 234 3 234 6 0 12 -224 414 -230
414 -4 0 -59 -94 -122 -210z"/>
<path d="M14040 4244 l0 -136 243 4 c215 3 246 5 271 21 51 34 70 115 42 181
-24 58 -62 66 -326 66 l-230 0 0 -136z"/>
<path d="M1808 2587 l-117 -212 231 -3 c127 -1 233 -1 235 2 4 3 -212 402
-226 418 -3 3 -59 -89 -123 -205z"/>
<path d="M3850 2520 l0 -280 210 0 c270 0 334 13 408 83 84 80 84 314 0 394
-74 70 -138 83 -408 83 l-210 0 0 -280z"/>
<path d="M7770 2665 l0 -135 218 0 c119 0 233 5 253 10 19 6 46 22 60 36 21
22 24 35 24 94 0 121 -22 130 -332 130 l-223 0 0 -135z"/>
<path d="M12648 2587 l-117 -212 231 -3 c127 -1 233 -1 235 2 4 3 -212 402
-226 418 -3 3 -59 -89 -123 -205z"/>
<path d="M14480 2520 l0 -280 213 0 c232 0 295 9 370 53 34 21 52 40 72 82 25
51 27 62 23 158 -4 127 -29 178 -105 219 -74 40 -136 48 -363 48 l-210 0 0
-280z"/>
</g>
</svg>
