<?xml version="1.0" encoding="utf-8"?>
<!-- Generator: Adobe Illustrator 25.1.0, SVG Export Plug-In . SVG Version: 6.00 Build 0)  -->
<svg version="1.1" xmlns="http://www.w3.org/2000/svg" xmlns:xlink="http://www.w3.org/1999/xlink" x="0px" y="0px"
	 viewBox="0 0 150 38" height="63" style="enable-background:new 0 0 150 38;" xml:space="preserve">
<style type="text/css">
	.st0{fill-rule:evenodd;clip-rule:evenodd;}
	.st1{fill:#FFFFFF;}
	.st2{fill-rule:evenodd;clip-rule:evenodd;fill:#FFFFFF;}
</style>
<g id="Amazon">
	<g>
		<g>
			<path class="st1" d="M23.8,12.8v-1h-3.1V6.2h-1.2v6.7H23.8L23.8,12.8z M25.7,12.8V8h-1.1v4.9H25.7L25.7,12.8z M25.7,7
				c0.1-0.1,0.2-0.3,0.2-0.5c0-0.2-0.1-0.4-0.2-0.5c-0.1-0.1-0.3-0.2-0.5-0.2c-0.2,0-0.4,0.1-0.5,0.2c-0.1,0.1-0.2,0.3-0.2,0.5
				c0,0.2,0.1,0.4,0.2,0.5c0.1,0.1,0.3,0.2,0.5,0.2C25.4,7.2,25.6,7.1,25.7,7L25.7,7z M29.2,12c-0.1,0.1-0.4,0.1-0.7,0.1
				c-0.5,0-1-0.1-1.6-0.3v0.8c0.2,0.1,0.5,0.2,0.8,0.3c0.3,0.1,0.6,0.1,0.9,0.1c0.6,0,1.1-0.1,1.4-0.4c0.3-0.3,0.5-0.7,0.5-1.1
				c0-0.3-0.1-0.6-0.3-0.8c-0.2-0.2-0.4-0.4-0.8-0.5l-0.7-0.3c-0.3-0.1-0.4-0.2-0.5-0.3c-0.1-0.1-0.1-0.2-0.1-0.3
				c0-0.2,0.1-0.3,0.2-0.4c0.1-0.1,0.4-0.1,0.7-0.1c0.4,0,0.9,0.1,1.4,0.2V8.1c-0.4-0.2-0.9-0.3-1.4-0.3c-0.6,0-1,0.1-1.3,0.4
				c-0.3,0.3-0.5,0.6-0.5,1.1c0,0.6,0.4,1.1,1.1,1.3l0.8,0.3c0.2,0.1,0.4,0.2,0.5,0.3s0.1,0.2,0.1,0.3C29.4,11.7,29.3,11.9,29.2,12
				L29.2,12z M34.2,11.9C34,12,33.7,12,33.4,12c-0.2,0-0.4,0-0.5-0.1c-0.1-0.1-0.2-0.2-0.2-0.5V8.8h1.4V8h-1.4V6.6h-0.9L31.7,8
				l-0.9,0.1v0.7h0.8v2.6c0,0.5,0.1,0.8,0.4,1.1c0.2,0.2,0.6,0.4,1.1,0.4c0.4,0,0.7-0.1,1.1-0.2V11.9L34.2,11.9z M39,10.7
				c0.1-0.3,0.1-0.6,0.1-0.9c0-0.6-0.2-1.1-0.5-1.5c-0.3-0.3-0.8-0.5-1.4-0.5c-0.7,0-1.3,0.2-1.7,0.7c-0.4,0.5-0.6,1.1-0.6,1.9
				c0,0.8,0.2,1.5,0.6,1.9c0.4,0.4,1,0.7,1.8,0.7c0.3,0,0.6,0,0.9-0.1c0.3-0.1,0.6-0.2,0.8-0.3v-0.8c-0.5,0.2-1,0.3-1.5,0.3
				c-0.5,0-0.9-0.1-1.1-0.3c-0.2-0.2-0.4-0.6-0.4-1.1H39L39,10.7z M37.9,8.9c0.2,0.2,0.2,0.5,0.2,0.9v0.1H36c0-0.4,0.1-0.7,0.4-0.9
				c0.2-0.2,0.5-0.3,0.8-0.3C37.5,8.6,37.7,8.7,37.9,8.9L37.9,8.9z M44.6,12.8V9.3c0-0.5-0.1-0.8-0.4-1.1c-0.2-0.2-0.6-0.4-1.1-0.4
				c-0.7,0-1.3,0.2-1.9,0.7L41.2,8h-0.9v4.9h1.1V9.1c0.4-0.3,0.9-0.4,1.3-0.4c0.3,0,0.5,0.1,0.6,0.2c0.1,0.1,0.2,0.4,0.2,0.7v3.2
				H44.6L44.6,12.8z M52.3,12.3c0.4-0.5,0.6-1.1,0.6-1.9c0-0.8-0.2-1.4-0.6-1.9c-0.4-0.5-1-0.7-1.7-0.7c-0.7,0-1.3,0.2-1.7,0.7
				c-0.4,0.5-0.6,1.1-0.6,1.9c0,0.8,0.2,1.4,0.6,1.9c0.4,0.5,1,0.7,1.7,0.7C51.3,13,51.9,12.8,52.3,12.3L52.3,12.3z M49.4,10.4
				c0-1.1,0.4-1.7,1.2-1.7s1.2,0.6,1.2,1.7c0,1.1-0.4,1.7-1.2,1.7S49.4,11.5,49.4,10.4L49.4,10.4L49.4,10.4z M58.4,12.8V9.3
				c0-0.5-0.1-0.8-0.4-1.1c-0.2-0.2-0.6-0.4-1.1-0.4c-0.7,0-1.3,0.2-1.9,0.7L55,8h-0.9v4.9h1.1V9.1c0.4-0.3,0.9-0.4,1.3-0.4
				c0.3,0,0.5,0.1,0.6,0.2c0.1,0.1,0.2,0.4,0.2,0.7v3.2H58.4L58.4,12.8z"/>
		</g>
		<path class="st2" d="M53.1,18.1v-1.4c0-0.2,0.2-0.3,0.3-0.3l6,0c0.2,0,0.3,0.1,0.3,0.3v1.2c0,0.2-0.2,0.5-0.5,0.9l-3.1,4.5
			c1.2,0,2.4,0.1,3.4,0.7c0.2,0.1,0.3,0.3,0.3,0.5V26c0,0.2-0.2,0.4-0.4,0.3c-1.9-1-4.3-1.1-6.4,0c-0.2,0.1-0.4-0.1-0.4-0.3v-1.4
			c0-0.2,0-0.6,0.2-0.9l3.6-5.2l-3.2,0C53.3,18.4,53.1,18.3,53.1,18.1L53.1,18.1z M31.1,26.6h-1.8c-0.2,0-0.3-0.1-0.3-0.3l0-9.5
			c0-0.2,0.2-0.3,0.4-0.3l1.7,0c0.2,0,0.3,0.1,0.3,0.3V18h0c0.4-1.2,1.3-1.8,2.4-1.8c1.1,0,1.9,0.6,2.4,1.8c0.4-1.2,1.5-1.8,2.5-1.8
			c0.8,0,1.6,0.3,2.1,1c0.6,0.8,0.5,2,0.5,3l0,6c0,0.2-0.2,0.3-0.4,0.3h-1.8c-0.2,0-0.3-0.2-0.3-0.3l0-5c0-0.4,0-1.4-0.1-1.8
			c-0.1-0.6-0.5-0.8-1.1-0.8c-0.4,0-0.9,0.3-1.1,0.8c-0.2,0.5-0.2,1.3-0.2,1.8v5c0,0.2-0.2,0.3-0.4,0.3h-1.8c-0.2,0-0.3-0.2-0.3-0.3
			l0-5c0-1.1,0.2-2.6-1.1-2.6c-1.3,0-1.3,1.5-1.3,2.6l0,5C31.4,26.4,31.3,26.6,31.1,26.6L31.1,26.6z M65.1,16.2
			c2.7,0,4.2,2.4,4.2,5.4c0,2.9-1.6,5.2-4.2,5.2c-2.7,0-4.1-2.4-4.1-5.3C60.9,18.5,62.4,16.2,65.1,16.2L65.1,16.2z M65.1,18.1
			c-1.4,0-1.4,1.9-1.4,3c0,1.2,0,3.6,1.4,3.6c1.4,0,1.5-2,1.5-3.2c0-0.8,0-1.8-0.3-2.5C66.1,18.4,65.7,18.1,65.1,18.1L65.1,18.1z
			 M72.8,26.6H71c-0.2,0-0.3-0.2-0.3-0.3l0-9.5c0-0.2,0.2-0.3,0.4-0.3l1.7,0c0.2,0,0.3,0.1,0.3,0.3v1.5h0c0.5-1.3,1.2-1.9,2.5-1.9
			c0.8,0,1.6,0.3,2.1,1.1c0.5,0.8,0.5,2,0.5,3v6c0,0.2-0.2,0.3-0.4,0.3H76c-0.2,0-0.3-0.1-0.3-0.3v-5.2c0-1,0.1-2.6-1.1-2.6
			c-0.4,0-0.9,0.3-1.1,0.8c-0.3,0.6-0.3,1.2-0.3,1.8v5.1C73.2,26.4,73,26.6,72.8,26.6L72.8,26.6z M50.2,26.5c-0.1,0.1-0.3,0.1-0.4,0
			c-0.6-0.5-0.7-0.7-1.1-1.2c-1,1-1.7,1.3-3,1.3c-1.5,0-2.8-1-2.8-2.9c0-1.5,0.8-2.5,2-3c1-0.4,2.4-0.5,3.5-0.6v-0.2
			c0-0.4,0-1-0.2-1.3c-0.2-0.3-0.7-0.5-1-0.5c-0.7,0-1.3,0.4-1.5,1.1c0,0.2-0.2,0.3-0.3,0.3l-1.8-0.2c-0.2,0-0.3-0.2-0.3-0.4
			c0.4-2.2,2.4-2.8,4.1-2.8c0.9,0,2.1,0.2,2.8,0.9c0.9,0.8,0.8,2,0.8,3.2v2.9c0,0.9,0.4,1.2,0.7,1.7c0.1,0.2,0.1,0.4,0,0.5
			C51.2,25.6,50.5,26.2,50.2,26.5L50.2,26.5L50.2,26.5z M48.3,22v-0.4c-1.3,0-2.7,0.3-2.7,1.9c0,0.8,0.4,1.3,1.1,1.3
			c0.5,0,1-0.3,1.3-0.8C48.3,23.3,48.3,22.7,48.3,22L48.3,22z M26.1,26.5c-0.1,0.1-0.3,0.1-0.4,0c-0.6-0.5-0.7-0.7-1.1-1.2
			c-1,1-1.7,1.3-3,1.3c-1.5,0-2.8-1-2.8-2.9c0-1.5,0.8-2.5,2-3c1-0.4,2.4-0.5,3.5-0.6v-0.2c0-0.4,0-1-0.2-1.3
			c-0.2-0.3-0.7-0.5-1-0.5c-0.7,0-1.3,0.4-1.5,1.1c0,0.2-0.2,0.3-0.3,0.3l-1.8-0.2c-0.2,0-0.3-0.2-0.3-0.4c0.4-2.2,2.4-2.8,4.1-2.8
			c0.9,0,2.1,0.2,2.8,0.9c0.9,0.8,0.8,2,0.8,3.2v2.9c0,0.9,0.4,1.2,0.7,1.7c0.1,0.2,0.1,0.4,0,0.5C27.1,25.6,26.4,26.2,26.1,26.5
			L26.1,26.5L26.1,26.5z M24.2,22v-0.4c-1.3,0-2.7,0.3-2.7,1.9c0,0.8,0.4,1.3,1.1,1.3c0.5,0,1-0.3,1.3-0.8
			C24.2,23.3,24.2,22.7,24.2,22L24.2,22z M55.6,30.2c-3.5,2.6-8.5,3.9-12.8,3.9c-6,0-11.5-2.3-15.6-6c-0.3-0.3,0-0.7,0.4-0.5
			c4.4,2.6,9.9,4.2,15.6,4.2c3.8,0,8-0.8,11.9-2.5C55.7,29.2,56.2,29.8,55.6,30.2L55.6,30.2z M57.1,28.6c-0.4-0.6-2.9-0.3-4-0.1
			c-0.3,0-0.4-0.3-0.1-0.5c2-1.4,5.2-1,5.6-0.5c0.4,0.5-0.1,3.7-2,5.3c-0.3,0.2-0.6,0.1-0.4-0.2C56.6,31.5,57.5,29.1,57.1,28.6
			L57.1,28.6z M115.6,24.9c0.3-0.3,0.5-0.6,0.5-1.1c0-0.3-0.1-0.6-0.3-0.8c-0.2-0.2-0.6-0.4-1.1-0.6l-1.7-0.6
			c-1.5-0.5-2.2-1.5-2.2-2.8c0-0.9,0.3-1.6,1-2.1c0.7-0.5,1.5-0.8,2.6-0.8c0.9,0,1.7,0.2,2.5,0.5c0.2,0.1,0.3,0.1,0.3,0.2
			c0.1,0.1,0.1,0.2,0.1,0.4v0.5c0,0.2-0.1,0.4-0.3,0.4c-0.1,0-0.2,0-0.5-0.1c-0.7-0.2-1.4-0.3-2.1-0.3c-1.3,0-1.9,0.4-1.9,1.3
			c0,0.3,0.1,0.6,0.3,0.8c0.2,0.2,0.6,0.4,1.3,0.7l1.5,0.6c0.8,0.3,1.3,0.7,1.7,1.1c0.3,0.4,0.5,1,0.5,1.6c0,0.9-0.4,1.7-1.1,2.3
			c-0.7,0.6-1.6,0.8-2.8,0.8c-1.1,0-2.1-0.2-3-0.6c-0.2-0.1-0.3-0.1-0.3-0.2c-0.1-0.1-0.1-0.2-0.1-0.4v-0.6c0-0.2,0.1-0.4,0.2-0.4
			c0.1,0,0.3,0,0.5,0.1c0.9,0.3,1.8,0.4,2.7,0.4C114.8,25.3,115.3,25.2,115.6,24.9L115.6,24.9z M106.8,16.8c0-0.3,0.1-0.4,0.4-0.4
			h1.2c0.3,0,0.4,0.1,0.4,0.4v9.3c0,0.3-0.1,0.4-0.4,0.4h-0.9c-0.1,0-0.2,0-0.3-0.1c-0.1-0.1-0.1-0.2-0.1-0.3l-0.1-0.7
			c-1.2,0.9-2.5,1.4-3.8,1.4c-0.9,0-1.7-0.3-2.2-0.8c-0.5-0.5-0.8-1.3-0.8-2.3v-7c0-0.3,0.1-0.4,0.4-0.4h1.2c0.3,0,0.4,0.1,0.4,0.4
			v6.3c0,0.7,0.1,1.3,0.4,1.6c0.3,0.3,0.7,0.5,1.3,0.5c1,0,1.9-0.3,2.9-1V16.8L106.8,16.8z M96.2,26.6c-0.3,0-0.4-0.1-0.4-0.4v-6.5
			c0-0.7-0.1-1.2-0.4-1.5c-0.3-0.3-0.6-0.5-1.2-0.5c-1,0-1.9,0.3-2.9,0.9c0,0.1,0,0.2,0,0.3v7.2c0,0.3-0.1,0.4-0.4,0.4h-1.2
			c-0.3,0-0.4-0.1-0.4-0.4v-6.5c0-0.7-0.1-1.2-0.4-1.5c-0.3-0.3-0.6-0.5-1.2-0.5c-1,0-2,0.3-2.9,0.9v7.6c0,0.3-0.1,0.4-0.4,0.4h-1.2
			c-0.3,0-0.4-0.1-0.4-0.4v-9.3c0-0.3,0.1-0.4,0.4-0.4h0.9c0.1,0,0.2,0,0.3,0.1c0.1,0.1,0.1,0.2,0.1,0.3l0.1,0.6
			c1.3-0.9,2.5-1.3,3.7-1.3c1.2,0,2.1,0.5,2.5,1.4c1.3-0.9,2.6-1.4,3.9-1.4c0.9,0,1.6,0.3,2.1,0.8c0.5,0.5,0.7,1.3,0.7,2.2v7
			c0,0.3-0.1,0.4-0.4,0.4H96.2L96.2,26.6z M126.5,18.7c-0.5,0.6-0.7,1.5-0.7,2.7v0.3c0,1.2,0.2,2.1,0.7,2.7c0.5,0.6,1.3,0.9,2.4,0.9
			c0.6,0,1.2-0.1,1.8-0.3c0.1,0,0.2-0.1,0.3-0.1c0.2,0,0.3,0.1,0.3,0.4v0.5c0,0.2,0,0.3-0.1,0.4c-0.1,0.1-0.2,0.2-0.3,0.2
			c-0.6,0.3-1.4,0.4-2.3,0.4c-1.6,0-2.8-0.5-3.6-1.4c-0.8-0.9-1.2-2.2-1.2-3.9c0-1.7,0.4-3,1.3-3.9c0.9-0.9,2.1-1.4,3.6-1.4
			c0.7,0,1.4,0.1,2.1,0.4c0.1,0.1,0.2,0.1,0.3,0.2c0.1,0.1,0.1,0.2,0.1,0.4v0.5c0,0.3-0.1,0.4-0.3,0.4c-0.1,0-0.2,0-0.3-0.1
			c-0.5-0.2-1.1-0.2-1.6-0.2C127.8,17.8,127,18.1,126.5,18.7L126.5,18.7z M121.3,16.4c0.3,0,0.4,0.1,0.4,0.4v9.3
			c0,0.3-0.1,0.4-0.4,0.4h-1.2c-0.3,0-0.4-0.1-0.4-0.4v-9.3c0-0.3,0.1-0.4,0.4-0.4H121.3L121.3,16.4z M121.6,12.5
			c0.2,0.2,0.3,0.5,0.3,0.9c0,0.4-0.1,0.7-0.3,0.9c-0.2,0.2-0.5,0.3-0.9,0.3c-0.4,0-0.7-0.1-0.9-0.3c-0.2-0.2-0.3-0.5-0.3-0.9
			c0-0.4,0.1-0.7,0.3-0.9c0.2-0.2,0.5-0.3,0.9-0.3C121.1,12.2,121.4,12.3,121.6,12.5L121.6,12.5z"/>
	</g>
</g>
</svg>
