<?xml version="1.0" encoding="UTF-8" standalone="no"?>
<svg
   viewBox="0 0 24 24"
   version="1.1"
   id="svg1780"
   sodipodi:docname="amazonmusic_black.svg"
   inkscape:version="1.1.2 (0a00cf5339, 2022-02-04)"
   xmlns:inkscape="http://www.inkscape.org/namespaces/inkscape"
   xmlns:sodipodi="http://sodipodi.sourceforge.net/DTD/sodipodi-0.dtd"
   xmlns="http://www.w3.org/2000/svg"
   xmlns:svg="http://www.w3.org/2000/svg">
  <defs
     id="defs1784" />
  <sodipodi:namedview
     id="namedview1782"
     pagecolor="#ffffff"
     bordercolor="#666666"
     borderopacity="1.0"
     inkscape:pageshadow="2"
     inkscape:pageopacity="0.0"
     inkscape:pagecheckerboard="0"
     showgrid="false"
     inkscape:zoom="36.291667"
     inkscape:cx="11.986223"
     inkscape:cy="11.986223"
     inkscape:window-width="1916"
     inkscape:window-height="1041"
     inkscape:window-x="0"
     inkscape:window-y="18"
     inkscape:window-maximized="1"
     inkscape:current-layer="svg1780" />
  <path
     fill-rule="evenodd"
     d="M13.96 10.09c0 1.23.03 2.26-.6 3.35-.5.9-1.3 1.44-2.18 1.44-1.21 0-1.92-.93-1.92-2.3 0-2.69 2.41-3.18 4.7-3.18v.69zm3.18 7.7c-.2.2-.5.2-.74.08-1.05-.87-1.24-1.28-1.82-2.1-1.73 1.76-2.96 2.29-5.2 2.29-2.66 0-4.74-1.64-4.74-4.92 0-2.57 1.4-4.31 3.37-5.17 1.72-.75 4.11-.89 5.95-1.1v-.4c0-.76.06-1.65-.39-2.3-.38-.58-1.12-.82-1.77-.82-1.2 0-2.28.62-2.54 1.9-.06.28-.26.57-.55.58L5.65 5.5c-.26-.06-.55-.27-.47-.66C5.88 1.12 9.24 0 12.24 0 13.78 0 15.8.41 17 1.57c1.54 1.44 1.4 3.36 1.4 5.44v4.93c0 1.48.6 2.13 1.18 2.92.2.3.25.63 0 .84-.65.54-1.8 1.54-2.43 2.1zm3.56 2a18.16 18.16 0 0 1-8.45 2.17c-4.03 0-7.93-1.39-11.08-3.7-.28-.2-.48.15-.25.41C3.84 22 7.7 24 11.99 24c3.07 0 6.62-1.21 9.07-3.5.4-.37.06-.94-.36-.72zm.67 2.2c-.09.24.1.33.31.16 1.34-1.12 1.69-3.47 1.41-3.8-.27-.34-2.6-.63-4.04.37-.22.15-.18.37.07.34.8-.1 2.6-.32 2.9.1.33.4-.35 2.09-.65 2.84z"
     clip-rule="evenodd"
     id="path1778"
     style="fill:#000000" />
</svg>
