<svg width="166.6" height="36" xmlns="http://www.w3.org/2000/svg" xmlns:xlink="http://www.w3.org/1999/xlink" xml:space="preserve" version="1.1">
 <g>
  <title>Layer 1</title>
  <g id="svg_1">
   <defs transform="translate(0 -1.65) translate(0 3.81470e-7) translate(0.249989 0) translate(0 0.5) translate(-20.75 -0.5) translate(-18 0) translate(-37 0) translate(0 0.325) translate(-77.6968 0) translate(0 0.25) translate(0 0.25) translate(0 -0.25) translate(0 -0.25) translate(0 -0.25) translate(0 -0.25) translate(0 -0.25) translate(0 -0.25) translate(0 -0.25) translate(0 -0.25) translate(0 -0.25) translate(0 -0.25) translate(0 -0.25) translate(0 -0.25) translate(0 -0.25) translate(0 -0.25) translate(0 -0.25) translate(0 -0.25) translate(0 -0.25) translate(0 -0.25) translate(0 -0.25) translate(0 -0.25) translate(-2.5 1.25)">
    <path d="m303.9,7.9c0.6,0.7 0.6,1.7 0,2.4c-0.7,0.6 -1.8,0.6 -2.5,0c-0.6,-0.7 -0.6,-1.7 0,-2.4c0.7,-0.6 1.8,-0.6 2.5,0zm-0.5,5.4c0.3,0 0.5,0.1 0.6,0.4c0,0 0,0.1 0,0.1l0,12.9c0,0.3 -0.1,0.5 -0.4,0.6c0,0 -0.1,0 -0.1,0l-1.6,0c-0.3,0 -0.5,-0.2 -0.5,-0.4c0,0 0,-0.1 0,-0.1l0,-13c0,-0.3 0.1,-0.5 0.4,-0.5c0,0 0.1,0 0.1,0l1.5,0zm7.3,3.1c-0.7,0.8 -1,2 -1,3.7l0,0.4c0,1.7 0.4,2.9 1,3.7c0.9,0.9 2.1,1.3 3.3,1.2c0.8,0 1.7,-0.1 2.5,-0.4c0.1,0 0.3,-0.1 0.4,-0.1c0.2,0 0.4,0.2 0.4,0.5l0,0.7c0,0.2 0,0.4 -0.1,0.5c-0.1,0.1 -0.3,0.2 -0.4,0.3c-1,0.4 -2.1,0.6 -3.2,0.6c-2.2,0 -3.8,-0.6 -5,-1.9s-1.7,-3 -1.7,-5.4s0.6,-4.1 1.8,-5.4c1.3,-1.3 3.2,-2 5,-1.9c1,0 2,0.2 2.9,0.5c0.2,0 0.3,0.1 0.4,0.3c0.1,0.2 0.1,0.4 0.1,0.6l0,0.7c0,0.4 -0.1,0.5 -0.4,0.5c-0.2,0 -0.3,0 -0.4,-0.1c-0.7,-0.2 -1.5,-0.3 -2.3,-0.3c-1.5,0.1 -2.6,0.5 -3.3,1.3l0,0zm-42.2,10.9c-0.3,0 -0.5,-0.1 -0.6,-0.4c0,0 0,-0.1 0,-0.1l0,-8.9c0.1,-0.7 -0.1,-1.4 -0.5,-2c-0.4,-0.5 -1,-0.7 -1.7,-0.7c-1.4,0 -2.9,0.5 -4.1,1.2c0,0.1 0,0.3 0,0.4l0,10c0,0.3 -0.1,0.5 -0.4,0.6c0,0 -0.1,0 -0.1,0l-1.6,0c-0.3,0 -0.5,-0.1 -0.6,-0.4c0,0 0,-0.1 0,-0.1l0,-8.9c0.1,-0.7 -0.1,-1.4 -0.5,-2c-0.4,-0.5 -1,-0.7 -1.7,-0.7c-1.4,0 -2.8,0.4 -4,1.2l0,10.4c0,0.3 -0.1,0.5 -0.4,0.6c0,0 -0.1,0 -0.1,0l-1.6,0c-0.3,0 -0.5,-0.2 -0.5,-0.4c0,0 0,-0.1 0,-0.1l0,-13.2c0,-0.3 0.1,-0.5 0.4,-0.5c0,0 0.1,0 0.1,0l1.2,0c0.1,0 0.3,0 0.4,0.1c0.1,0.1 0.2,0.3 0.2,0.4l0.2,0.9c1.5,-1.1 3.3,-1.8 5.2,-1.8c1.7,0 2.9,0.7 3.5,2c1.6,-1.2 3.5,-1.9 5.5,-2c1.1,-0.1 2.1,0.3 2.9,1.1c0.7,0.8 1.1,1.9 1,3.1l0,9.7c0,0.3 -0.1,0.5 -0.4,0.6c0,0 -0.1,0 -0.1,0l-1.7,-0.1zm14.8,-13.5c0,-0.3 0.2,-0.5 0.4,-0.5c0,0 0.1,0 0.1,0l1.6,0c0.3,0 0.5,0.1 0.6,0.4c0,0 0,0.1 0,0.1l0,12.9c0,0.3 -0.1,0.5 -0.4,0.6c0,0 -0.1,0 -0.1,0l-1.2,0c-0.1,0 -0.3,0 -0.4,-0.1c-0.1,-0.1 -0.2,-0.3 -0.2,-0.4l-0.2,-1c-1.5,1.2 -3.4,1.9 -5.3,1.9c-1.1,0.1 -2.2,-0.3 -3,-1.1c-0.7,-0.9 -1.1,-2 -1.1,-3.1l0,-9.6c0,-0.3 0.2,-0.5 0.4,-0.5c0,0 0.1,0 0.1,0l1.6,0c0.3,0 0.5,0.1 0.6,0.4c0,0 0,0.1 0,0.1l0,8.8c-0.1,0.8 0.1,1.6 0.6,2.2c0.5,0.5 1.2,0.8 1.9,0.7c1.4,0 2.8,-0.5 4,-1.3l0,-10.5zm12.3,11.2c0.5,-0.3 0.8,-0.9 0.7,-1.5c0,-0.4 -0.1,-0.8 -0.4,-1.1c-0.5,-0.4 -1,-0.7 -1.6,-0.8l-2.4,-0.9c-2,-0.7 -3.1,-2 -3.1,-3.9c0,-1.1 0.5,-2.2 1.4,-2.9c1.1,-0.8 2.3,-1.2 3.7,-1.1c1.2,0 2.4,0.2 3.5,0.6c0.2,0 0.3,0.1 0.5,0.3c0.1,0.2 0.1,0.4 0.1,0.5l0,0.8c0,0.3 -0.1,0.5 -0.4,0.5c-0.2,0 -0.4,-0.1 -0.6,-0.1c-1,-0.3 -2,-0.4 -3,-0.4c-1.8,0 -2.7,0.6 -2.7,1.8c0,0.4 0.1,0.8 0.4,1.1c0.5,0.4 1.1,0.7 1.7,0.9l2.2,0.8c0.9,0.3 1.7,0.8 2.3,1.5c0.5,0.6 0.8,1.4 0.7,2.3c0,1.2 -0.5,2.4 -1.5,3.1c-1.1,0.8 -2.5,1.2 -3.9,1.2c-1.4,0 -2.8,-0.2 -4.2,-0.8c-0.2,-0.1 -0.3,-0.2 -0.5,-0.3c-0.1,-0.2 -0.1,-0.3 -0.1,-0.5l0,-0.8c0,-0.3 0.1,-0.5 0.3,-0.5c0.2,0 0.5,0.1 0.7,0.2c1.2,0.4 2.5,0.6 3.8,0.6c1,0 1.8,-0.2 2.4,-0.6l0,0zm-81.6,5c-0.6,-0.8 -4.1,-0.4 -5.6,-0.2c-0.5,0.1 -0.5,-0.4 -0.1,-0.7c2.8,-1.9 7.3,-1.4 7.8,-0.7c0.5,0.6 -0.1,5.2 -2.7,7.3c-0.4,0.3 -0.8,0.2 -0.6,-0.3c0.5,-1.4 1.8,-4.6 1.2,-5.4zm-2,2.3c-4.8,3.5 -11.8,5.4 -17.8,5.4c-8,0 -15.8,-2.9 -21.7,-8.3c-0.5,-0.4 -0.1,-1 0.5,-0.6c6.6,3.8 14.1,5.8 21.8,5.8c5.7,0 11.3,-1.2 16.6,-3.4c0.7,-0.4 1.4,0.5 0.6,1.1zm-43.8,-11.3l0,-0.6c-1.9,0 -3.8,0.4 -3.8,2.6c0,1.1 0.6,1.9 1.6,1.9c0.8,0 1.4,-0.5 1.8,-1.2c0.3,-0.8 0.5,-1.8 0.4,-2.7zm2.6,6.2c-0.2,0.1 -0.4,0.2 -0.6,0.1c-0.6,-0.5 -1.1,-1.1 -1.5,-1.7c-1,1.3 -2.6,1.9 -4.2,1.9c-2.2,0 -3.8,-1.3 -3.8,-4c-0.1,-1.8 1,-3.5 2.7,-4.2c1.4,-0.6 3.3,-0.7 4.8,-0.9l0,-0.3c0.1,-0.6 0,-1.3 -0.3,-1.9c-0.3,-0.4 -0.9,-0.7 -1.5,-0.7c-1,-0.1 -1.9,0.6 -2.1,1.5c0,0.2 -0.2,0.4 -0.4,0.5l-2.5,-0.3c-0.2,-0.1 -0.4,-0.3 -0.3,-0.5c0.6,-3 3.3,-3.9 5.7,-3.9c1.4,0 2.8,0.4 3.9,1.3c1.3,1.2 1.1,2.7 1.1,4.4l0,4c0,0.9 0.4,1.7 1,2.4c0.2,0.2 0.2,0.5 0,0.7c0,0 0,0 0,0c-0.6,0.4 -1.5,1.2 -2,1.6l0,0zm31,-6.2l0,-0.6c-1.9,0 -3.8,0.4 -3.8,2.6c0,1.1 0.6,1.9 1.6,1.9c0.8,0 1.5,-0.5 1.8,-1.2c0.3,-0.8 0.5,-1.8 0.4,-2.7zm2.5,6.2c-0.2,0.1 -0.4,0.2 -0.6,0.1c-0.6,-0.5 -1.1,-1.1 -1.5,-1.7c-1,1.3 -2.6,1.9 -4.2,1.9c-2.2,0 -3.8,-1.3 -3.8,-4c0,-1.8 1,-3.5 2.7,-4.2c1.4,-0.6 3.3,-0.7 4.8,-0.9l0,-0.3c0.1,-0.6 0,-1.3 -0.3,-1.9c-0.3,-0.5 -0.9,-0.7 -1.5,-0.7c-1,-0.1 -1.9,0.6 -2.1,1.5c0,0.2 -0.2,0.4 -0.4,0.5l-2.5,-0.3c-0.2,-0.1 -0.4,-0.3 -0.4,-0.5c0.6,-3 3.3,-3.9 5.7,-3.9c1.4,0 2.8,0.4 3.8,1.3c1.2,1.2 1.1,2.7 1.1,4.4l0,4c0,0.9 0.4,1.7 1,2.4c0.2,0.2 0.2,0.5 0,0.7c-0.3,0.4 -1.2,1.2 -1.8,1.6l0,0zm31.6,0l-2.6,0c-0.3,0 -0.5,-0.2 -0.5,-0.5l0,-13.2c0,-0.2 0.2,-0.4 0.5,-0.4l2.4,0c0.2,0 0.4,0.2 0.5,0.4l0,2l0,0c0.7,-1.8 1.7,-2.6 3.5,-2.6c1.2,-0.1 2.3,0.5 3,1.5c0.7,1 0.7,2.8 0.7,4.1l0,8.3c0,0.2 -0.2,0.4 -0.5,0.4l-2.6,0c-0.2,0 -0.4,-0.2 -0.5,-0.4l0,-7.1c0,-1.5 0.2,-3.5 -1.6,-3.5c-0.7,0 -1.2,0.4 -1.5,1.1c-0.3,0.8 -0.5,1.6 -0.4,2.5l0,7.1c0.1,0.2 -0.1,0.4 -0.4,0.3c0,0.1 0,0.1 0,0l0,0zm-10.8,-11.6c-1.9,0 -2,2.6 -2,4.2c0,1.6 0,5 2,5c2,0 2.1,-2.8 2.1,-4.4c0,-1.2 -0.1,-2.3 -0.4,-3.5c-0.1,-0.8 -0.9,-1.3 -1.7,-1.3zm0,-2.6c3.8,0 5.9,3.3 5.9,7.4c0,4 -2.3,7.2 -5.9,7.2c-3.7,0 -5.8,-3.3 -5.8,-7.3c0.1,-4.1 2.1,-7.3 5.8,-7.3l0,0zm-47.3,14.3l-2.6,0c-0.2,0 -0.4,-0.2 -0.5,-0.4l0,-13.2c0,-0.3 0.2,-0.5 0.5,-0.5c0,0 0,0 0,0l2.4,0c0.2,0 0.4,0.2 0.5,0.4l0,1.7l0,0c0.4,-1.5 1.8,-2.5 3.4,-2.4c1.6,0 2.6,0.8 3.3,2.4c0.8,-2 3,-2.9 4.9,-2.2c0.6,0.2 1.2,0.6 1.6,1.2c0.8,1.1 0.6,2.7 0.6,4.1l0,8.3c0,0.3 -0.2,0.5 -0.5,0.5c0,0 0,0 0,0l-2.6,0c-0.3,0 -0.5,-0.2 -0.5,-0.5l0,-7c0,-0.8 0,-1.6 -0.1,-2.5c-0.1,-0.7 -0.8,-1.2 -1.5,-1.1c0,0 0,0 0,0c-0.7,0 -1.3,0.4 -1.5,1.1c-0.2,0.8 -0.3,1.7 -0.2,2.5l0,7c0,0.3 -0.2,0.5 -0.5,0.5c0,0 0,0 0,0l-2.6,0c-0.3,0 -0.5,-0.2 -0.5,-0.5l0,-7c0,-1.5 0.2,-3.6 -1.6,-3.6c-1.8,0 -1.8,2.1 -1.8,3.6l0,7c0.3,0.4 0,0.6 -0.2,0.6c0,0 0,0 0,0zm30.7,-11.7l0,-1.9c0,-0.3 0.2,-0.5 0.5,-0.5c0,0 0,0 0,0l8.4,0c0.3,0 0.5,0.2 0.5,0.4c0,0 0,0 0,0l0,1.6c-0.1,0.4 -0.3,0.9 -0.6,1.2l-4.4,6.2c1.7,-0.1 3.3,0.3 4.8,1c0.3,0.1 0.4,0.4 0.4,0.7l0,2c0,0.2 -0.2,0.5 -0.4,0.5c-0.1,0 -0.1,0 -0.2,0c-2.8,-1.4 -6.1,-1.4 -8.9,0c-0.3,0.2 -0.6,-0.2 -0.6,-0.4l0,-1.9c0,-0.5 0.1,-0.9 0.3,-1.3l5.1,-7.2l-4.4,0c-0.3,0 -0.5,-0.2 -0.5,-0.4c0,0 0,0 0,0l0,0z" id="SVGID_1_"/>
   </defs>
   <use x="-155.69686" y="-4.575" id="svg_2" fill="#242A36" xlink:href="#SVGID_1_"/>
   <clipPath transform="translate(0 -1.65) translate(0 3.81470e-7) translate(0.249989 0) translate(0 0.5) translate(-20.75 -0.5) translate(-18 0) translate(-37 0) translate(0 0.325) translate(-77.6968 0) translate(0 0.25) translate(0 0.25) translate(0 -0.25) translate(0 -0.25) translate(0 -0.25) translate(0 -0.25) translate(0 -0.25) translate(0 -0.25) translate(0 -0.25) translate(0 -0.25) translate(0 -0.25) translate(0 -0.25) translate(0 -0.25) translate(0 -0.25) translate(0 -0.25) translate(0 -0.25) translate(0 -0.25) translate(0 -0.25) translate(0 -0.25) translate(0 -0.25) translate(0 -0.25) translate(0 -0.25) translate(-2.5 1.25)" id="SVGID_2_">
    <use id="svg_3" xlink:href="#SVGID_1_"/>
   </clipPath>
  </g>
 </g>
</svg>