<svg id="Layer_1" data-name="Layer 1" xmlns="http://www.w3.org/2000/svg" viewBox="0 0 2000 2000"><path d="M1019.39,1576.92c-35-28.43-35-74.42-35-166.4V185.1c0-92,0-138,35-166.39s74.39-20.15,153.11-3.58c381.93,80.38,634.64,400.29,634.64,782.68s-252.71,702.3-634.64,782.69C1093.78,1597.06,1054.42,1605.35,1019.39,1576.92Z" fill="#794cf8" fill-rule="evenodd"/><path d="M239.23,1215.75c-36.82-28.44-36.82-74.57-36.82-166.84V193.48c0-92.26,0-138.39,36.82-166.83s74.91-18.6,151.06,1.1C675.7,101.55,858.58,339.3,858.58,621.2S675.7,1140.84,390.29,1214.65C314.14,1234.34,276.06,1244.19,239.23,1215.75Z" fill="#794cf8" fill-rule="evenodd"/><circle cx="530.48" cy="1662.38" r="337.62" fill="#794cf8"/></svg>