<svg xmlns="http://www.w3.org/2000/svg" viewBox="0 0 24 24"><defs><style>.cls-1{fill:#25f4ee;}.cls-2{fill:#fe2c55;}</style></defs><g id="TikTok"><g id="页面1"><g id="编组-2"><path id="路径" class="cls-1" d="M9.6584,9.4441V8.5166a6.905,6.905,0,0,0-.9812-.0844,7.2748,7.2748,0,0,0-4.17,13.2464A7.2739,7.2739,0,0,1,9.6421,9.4441Z"/><path id="路径-2" data-name="路径" class="cls-1" d="M9.8347,20.0458a3.327,3.327,0,0,0,3.3193-3.1813V1.0042h2.8976A5.435,5.435,0,0,1,15.9673,0H12.0041V15.845a3.3268,3.3268,0,0,1-3.3192,3.2042,3.42,3.42,0,0,1-1.5485-.3679A3.3411,3.3411,0,0,0,9.8347,20.0458Z"/><path id="路径-3" data-name="路径" class="cls-1" d="M21.4636,6.3855V5.504a5.4129,5.4129,0,0,1-2.9973-.9046,5.4961,5.4961,0,0,0,2.9973,1.7861Z"/><path id="路径-4" data-name="路径" class="cls-2" d="M18.4663,4.5994A5.4577,5.4577,0,0,1,17.11.9965H16.0516a5.4884,5.4884,0,0,0,2.4147,3.6029Z"/><path id="路径-5" data-name="路径" class="cls-2" d="M8.6772,12.3954a3.3383,3.3383,0,0,0-1.5408,6.2859A3.3332,3.3332,0,0,1,9.8347,13.4a3.4989,3.4989,0,0,1,.9812.1533V9.5208a6.96,6.96,0,0,0-.9812-.0767H9.6584V12.51A3.4119,3.4119,0,0,0,8.6772,12.3954Z"/><path id="路径-6" data-name="路径" class="cls-2" d="M21.4636,6.3855V9.4518a9.4055,9.4055,0,0,1-5.4963-1.7861v8.0566a7.29,7.29,0,0,1-7.29,7.2748,7.2141,7.2141,0,0,1-4.17-1.3185A7.2747,7.2747,0,0,0,17.11,16.7265V8.6929a9.4216,9.4216,0,0,0,5.5039,1.7631V6.5082A5.625,5.625,0,0,1,21.4636,6.3855Z"/><path id="路径-7" data-name="路径" d="M15.9673,15.7223V7.6657a9.4047,9.4047,0,0,0,5.4963,1.7861V6.3855a5.5123,5.5123,0,0,1-2.9973-1.7861A5.4884,5.4884,0,0,1,16.0516.9965H13.154v15.868a3.327,3.327,0,0,1-6.0176,1.8168A3.327,3.327,0,0,1,8.67,12.4107a3.4222,3.4222,0,0,1,.9888.1V9.4441A7.3288,7.3288,0,0,0,3.0737,13.95c-1.1158,2.6567-.7724,5.95,1.4257,7.8131a6.2234,6.2234,0,0,0,4.1778,1.2342A7.29,7.29,0,0,0,15.9673,15.7223Z"/></g></g></g></svg>