<svg xmlns="http://www.w3.org/2000/svg" viewBox="0 0 129 38">
  <g fill="#22d6b2" fill-rule="evenodd">
    <path d="M51.71 29.06c-.63.1-2 .2-3.2.2-3.13 0-4.94-1.03-4.94-4.63V7.42c0-.33.3-.57.67-.63l1.64-.27h.06c.34 0 .57.3.57.63v3.54h5.2c.37 0 .64.23.64.6v1.13c0 .34-.27.6-.64.6h-5.2v11.6c0 1.94.63 2.28 2.47 2.28h2.7c.47 0 .7.13.7.46v1.14c0 .3-.17.5-.67.56M70.06 29.03h-2.3c-.23 0-.33-.07-.47-.27l-4.77-6.97-4.76 6.9c-.2.3-.27.34-.57.34h-2c-.27 0-.4-.13-.4-.33 0-.1.03-.27.16-.44l6-8.57-5.66-8.17c-.1-.16-.17-.3-.17-.43 0-.23.2-.4.5-.4h2.17c.27 0 .43.1.67.47l4.23 6.27 4.27-6.27c.3-.44.4-.47.7-.47h1.93c.27 0 .44.17.44.4 0 .13-.07.27-.17.43l-5.6 7.97 6.1 8.77c.1.14.13.27.13.4 0 .2-.1.37-.43.37M81.39 29.06c-.64.1-2 .2-3.2.2-3.14 0-4.94-1.03-4.94-4.63V7.42c0-.33.3-.57.67-.63l1.63-.27h.07c.33 0 .56.3.56.63v3.54h5.2c.37 0 .64.23.64.6v1.13c0 .34-.27.6-.63.6h-5.2v11.6c0 1.94.63 2.28 2.46 2.28h2.7c.47 0 .7.13.7.46v1.14c0 .3-.16.5-.66.56M92.26 29.26h-.3c-2.27 0-6.87-1.26-6.87-7.83V11.36c0-.37.23-.67.6-.67h1.73c.37 0 .6.3.6.67v10.07c0 4 1.7 5.27 3.94 5.27h.3c2.23 0 3.93-1.27 3.93-5.27V11.36c0-.37.24-.67.6-.67h1.74c.37 0 .6.3.6.67v10.07c0 6.57-4.6 7.83-6.87 7.83M110.9 13.02c-2.27 0-3.37.07-4.63.34v15c0 .34-.24.67-.6.67h-1.74c-.33 0-.6-.3-.6-.67v-16.2c0-.37.24-.6.6-.77 1.9-.84 4.2-.93 6.97-.93.44 0 .7.03.7.5v1.53c0 .37-.06.53-.7.53M125.58 18.4c0-3.58-1.44-5.38-4.37-5.38-2.87 0-4.47 1.94-4.47 5.37v.17h8.84v-.17Zm2.33 2.4h-11.17v.4c0 3.83 1.8 5.6 4.87 5.6 1.93 0 4.17-.24 5.7-.47h.17c.26 0 .53.13.53.47v1.13c0 .43-.13.67-.67.77-1.9.36-3.5.56-5.73.56-3.84 0-7.8-1.83-7.8-8.23v-2.34c0-4.73 2.63-8.23 7.4-8.23 4.87 0 7.33 3.46 7.33 8.2v1.4c0 .43-.23.73-.63.73Z" class="logo__txt"/>
    <path d="M6.98 21.69 3.3 19.57c-.45-.27-.45-.69 0-.95l3.68-2.12 4.49 2.6.83.47.83.48 1.4.81a3.3 3.3 0 0 0 1.64.42c.6 0 1.18-.15 1.65-.42l1.4-.8.83-.49.83-.48 4.5-2.59 3.66 2.12c.45.26.45.68 0 .95l-3.67 2.12-.83.48-.83.48-6.72 3.87c-.23.13-.52.2-.82.2-.3 0-.59-.07-.81-.2l-6.72-3.87-.83-.48-.83-.48Zm9.2-17.33c.29 0 .58.07.81.2l12.05 6.96c.45.26.45.68 0 .94l-3.67 2.12-.83.48-.83.48-4.5 2.6-.82.47-.84.48-.56.33c-.23.13-.52.2-.82.2-.3 0-.59-.07-.81-.2l-.57-.33-.83-.48-.83-.48-4.5-2.59-.82-.48-.83-.48-3.68-2.12c-.45-.26-.45-.68 0-.94l12.06-6.96c.22-.13.52-.2.81-.2Zm0 29.46c-.3 0-.6-.06-.82-.2L3.3 26.68c-.45-.26-.45-.68 0-.94l3.68-2.12 7.54 4.36a3.3 3.3 0 0 0 1.65.41c.6 0 1.18-.14 1.65-.41l7.55-4.36 3.67 2.12c.45.26.45.68 0 .94L17 33.63c-.23.13-.52.2-.82.2ZM31.95 9.48 16.65.63a.94.94 0 0 0-.95 0L.4 9.48a.77.77 0 0 0-.39.66v17.79c0 .27.15.53.39.67l15.4 8.89c.24.14.53.14.77 0l15.4-8.9c.24-.13.39-.39.39-.66V10.14a.77.77 0 0 0-.39-.66Z" class="logo__icon"/>
  </g>
</svg>
