<svg xmlns="http://www.w3.org/2000/svg" data-testid="header-hero-logo" viewBox="0 0 114 32">
  <g clip-path="url(#a)">
    <path fill="#E32851" d="M38.64 7.43h-4.92a.26.26 0 0 0-.25.26v15.9c0 .15.11.26.25.26h4.92c.14 0 .25-.11.25-.25V7.69a.26.26 0 0 0-.25-.26z"/>
    <path fill="#FF932C" d="m52.83 7.6-3.23 8.61a.06.06 0 0 1-.1 0L46.22 7.6a.26.26 0 0 0-.24-.17h-5.37a.26.26 0 0 0-.23.36l6.46 15.9c.03.1.13.16.23.16h4.73a.26.26 0 0 0 .23-.16l6.49-15.9a.26.26 0 0 0-.24-.36h-5.22a.26.26 0 0 0-.24.17z"/>
    <path fill="#0088D9" d="M104.34 7.18c-5.12 0-8.86 3.62-8.86 8.48s3.74 8.48 8.86 8.48c5.07 0 8.86-3.65 8.86-8.48 0-4.86-3.76-8.47-8.86-8.47zm0 12.33c-2.01 0-3.34-1.54-3.34-3.85s1.33-3.85 3.34-3.85c1.99 0 3.35 1.54 3.35 3.85 0 2.28-1.36 3.85-3.35 3.85z"/>
    <path fill="#E32851" d="M31.67 7.36a2.83 2.83 0 0 0-.51-.13c-.32-.05-3.65-.42-5.5 2.07-.04.04-.1.02-.1-.04V7.7a.26.26 0 0 0-.26-.26h-4.91a.26.26 0 0 0-.26.26v15.9c0 .15.12.26.26.26h4.91a.26.26 0 0 0 .26-.25v-5.91c0-4.42 2.04-5.51 4.06-5.51.23 0 .92 0 1.9.26a.26.26 0 0 0 .32-.24V7.6a.25.25 0 0 0-.17-.24zM36.18 0a3.05 3.05 0 0 0-3.1 2.99 3.05 3.05 0 0 0 3.1 2.99c1.71 0 3.1-1.34 3.1-2.99A3.05 3.05 0 0 0 36.18 0z"/>
    <path fill="#FF932C" d="M75.34 7.43h-4.91a.26.26 0 0 0-.26.26v1.56c0 .06-.08.08-.1.03-1.78-3.72-12.29-3-12.29 6.36 0 8.75 8.98 10.3 12.3 6.65.03-.04.1-.02.1.03v1.27c0 .15.1.26.25.26h4.91a.26.26 0 0 0 .26-.25V7.69a.26.26 0 0 0-.26-.26zM66.77 19.5c-2.16 0-3.67-1.51-3.67-3.84s1.5-3.87 3.67-3.87c2.2 0 3.67 1.57 3.67 3.87s-1.47 3.83-3.67 3.83z"/>
    <path fill="#0088D9" d="M93.9 7.43h-4.92a.26.26 0 0 0-.25.26v1.56c0 .07-.09.08-.11.03-1.78-3.77-11.57-2.82-11.57 5.89 0 8.54 8.92 9.24 11.58 6.76a.06.06 0 0 1 .1.04v.77a3.92 3.92 0 0 1-6.93 2.44.26.26 0 0 0-.33-.05l-4.14 2.68a.26.26 0 0 0-.07.37c5.28 7.21 16.8 3.54 16.89-5.43V7.7a.26.26 0 0 0-.26-.25zm-8.1 11.2c-1.96 0-3.33-1.36-3.33-3.46 0-2.1 1.37-3.5 3.32-3.5 1.99 0 3.32 1.42 3.32 3.5 0 2.07-1.33 3.47-3.32 3.47z"/>
    <path fill="#E32851" d="M18.42 14.87H13.5a.26.26 0 0 0-.25.23 3.92 3.92 0 0 1-3.9 3.61c-2.48 0-3.48-2.1-3.48-2.1a3.92 3.92 0 0 1-.45-1.74c0-.02.01-.04.03-.05l1.41-.78 8.9-4.92a.42.42 0 0 0 .21-.37V3.46a.26.26 0 0 0-.38-.22L5.51 8.8a.06.06 0 0 1-.09-.05V.46a.26.26 0 0 0-.4-.22L.2 3.37a.42.42 0 0 0-.19.36v11.14a9.34 9.34 0 0 0 18.68.27.26.26 0 0 0-.26-.27z"/>
  </g>
  <defs>
    <clipPath id="a">
      <path fill="#fff" d="M0 0h113.2v32H0z"/>
    </clipPath>
  </defs>
</svg>
