<?xml version="1.0" encoding="UTF-8"?>
<svg width="100pt" height="100pt" version="1.1" viewBox="0 0 100 100" xmlns="http://www.w3.org/2000/svg">
 <path d="m49.996 22.289c-15.289 0-27.707 12.418-27.707 27.707 0 15.293 12.418 27.711 27.707 27.711 15.289 0 27.711-12.418 27.711-27.711 0-15.289-12.426-27.707-27.711-27.707zm1.2578 2.9492c0.82422 0.25 1.6445 0.75391 2.4727 1.5273 1.2461 1.168 2.4453 2.9531 3.4648 5.2148 0.34766 0.76953 0.66797 1.5938 0.96875 2.4648h-6.9062zm-2.5195 0v9.207h-6.9023c0.30078-0.87109 0.625-1.6953 0.97266-2.4648 1.0195-2.2617 2.2188-4.0469 3.4648-5.2148 0.82422-0.77344 1.6445-1.2773 2.4688-1.5273zm-4.8008 0.30078c-1.3164 1.418-2.457 3.25-3.4297 5.4062-0.48828 1.0859-0.93359 2.2539-1.332 3.4961h-9.0039c3.4141-4.3477 8.2266-7.5391 13.766-8.9023zm12.121 0c5.5391 1.3633 10.352 4.5586 13.766 8.9023h-9.0039c-0.39844-1.2422-0.84375-2.4102-1.332-3.4961-0.96875-2.1562-2.1094-3.9883-3.4297-5.4062zm-27.629 11.422h10.027c-0.88672 3.5352-1.418 7.5273-1.5039 11.773h-12.113c0.21094-4.2969 1.4961-8.3086 3.5898-11.773zm12.637 0h7.668v11.773h-9.2617c0.09375-4.3008 0.67188-8.3203 1.5938-11.773zm10.188 0h7.6719c0.92188 3.457 1.4961 7.4727 1.5898 11.773h-9.2617zm10.277 0h10.031c2.0977 3.4648 3.3828 7.4766 3.5938 11.773h-12.121c-0.085938-4.2461-0.61719-8.2383-1.5039-11.773zm-36.695 14.293h12.113c0.085938 4.1836 0.60156 8.1211 1.4648 11.617h-10.086c-2.0391-3.4297-3.2852-7.3828-3.4961-11.617zm14.633 0h9.2617v11.617h-7.7109c-0.89844-3.4219-1.457-7.3789-1.5508-11.617zm11.781 0h9.2617c-0.09375 4.2383-0.65234 8.1953-1.5469 11.617h-7.7148zm11.781 0h12.121c-0.20703 4.2344-1.457 8.1875-3.4961 11.617h-0.007813-10.082c0.86328-3.4961 1.375-7.4336 1.4609-11.617zm-32.992 14.137h9.0781c0.41016 1.3008 0.875 2.5273 1.3828 3.6602 0.97266 2.1562 2.1094 3.9922 3.4297 5.4062-5.6094-1.3828-10.473-4.6367-13.891-9.0664zm11.734 0h6.957v9.3711c-0.82422-0.25-1.6445-0.75391-2.4688-1.5273-1.2461-1.168-2.4453-2.9531-3.4648-5.2148-0.36719-0.81641-0.71094-1.6953-1.0273-2.625zm9.4766 0h6.9609c-0.31641 0.92969-0.66016 1.8086-1.0273 2.625-1.0195 2.2617-2.2188 4.0469-3.4648 5.2148-0.82422 0.77734-1.6445 1.2773-2.4727 1.5273zm9.6133 0h9.082c-3.4219 4.4297-8.2852 7.6836-13.891 9.0664 1.3164-1.418 2.457-3.25 3.4297-5.4062 0.51172-1.1328 0.97266-2.3594 1.3828-3.6602z" fill="#bac2cf" fill-rule="evenodd"/>
</svg>
